<svg width="689" height="798" viewBox="0 0 689 798" fill="none" xmlns="http://www.w3.org/2000/svg">
<g clip-path="url(#clip0_1_3)">
<mask id="mask0_1_3" style="mask-type:luminance" maskUnits="userSpaceOnUse" x="-11" y="0" width="1312" height="800">
<path d="M1300.44 0H-11V800H1300.44V0Z" fill="white"/>
</mask>
<g mask="url(#mask0_1_3)">
<path d="M1301.33 7.24792e-05H-25.7703V800H1301.33V7.24792e-05Z" fill="url(#paint0_linear_1_3)"/>
</g>
<g clip-path="url(#clip1_1_3)">
<path d="M494.345 540.791C494.345 631.408 421.071 704.868 330.679 704.868C258.186 704.868 196.712 657.623 175.199 592.171C169.764 575.59 167.002 558.245 167.018 540.791C167.018 450.17 240.292 376.71 330.679 376.71C332.868 376.71 335.058 376.753 337.225 376.848C424.582 380.282 494.345 452.356 494.345 540.791Z" fill="url(#paint1_radial_1_3)"/>
<path d="M491.972 568.727C489.352 584.021 484.583 598.866 477.807 612.818C477.807 612.818 475.12 590.928 472.227 589.68C469.334 588.432 463.527 586.444 465.003 574.33C466.48 562.217 462.788 544.242 451.778 544.036C440.769 543.829 443.949 560.388 443.949 560.388C443.949 560.388 425.81 590.407 424.93 588.359C424.05 586.31 423.17 569.967 423.17 569.967C423.17 569.967 406.537 537.568 407.198 532.701C407.859 527.834 405.4 526.246 409.001 522.244C412.603 518.242 418.363 515.48 418.363 515.48L418.401 504.524L424.385 498.469L434.609 492.802C434.609 492.802 443.988 492.105 450.195 488.326C456.401 484.548 464.321 485.112 462.256 479.195C462.256 479.195 458.68 474.853 456.985 470.412C455.289 465.971 445.778 462.017 444.288 459.904C442.799 457.791 444.516 453.216 438.584 448.259C432.652 443.302 434.163 445.247 429.892 441.4C425.621 437.553 415.972 429.084 415.388 425.267C414.804 421.45 411.203 406.604 399.936 404.027C388.668 401.449 386.561 386.517 386.561 386.517C459.766 413.068 505.694 489.153 491.972 568.727Z" fill="white"/>
<path d="M474.202 619.768C446.413 670.52 393.193 703.581 334.435 704.859L352.368 690.659C352.368 690.659 354.467 682.052 355.592 679.1C356.717 676.148 368.739 656.547 368.739 656.547C368.739 656.547 367.92 639.812 369.4 631.227C370.881 622.642 378.449 618.128 383.389 607.4C388.329 596.672 412.74 601.806 418.642 599.766L438.348 604.311L453.126 614.548C453.126 614.548 464.677 617.487 474.202 619.768Z" fill="white"/>
<path d="M314.047 452.39C308.342 463.432 293.68 478.846 293.68 478.846C292.996 481.752 291.632 484.453 289.699 486.724C287.767 488.996 285.321 490.772 282.567 491.907C273.021 495.973 306.488 525.39 295.328 529.715C284.168 534.039 279.107 541.398 279.107 541.398C279.107 541.398 266.883 553.645 265.913 555.482C264.943 557.32 247.026 566.214 243.451 568.473C239.875 570.733 242.7 572.863 224.874 577.187C207.048 581.512 204.987 586.224 199.519 592.249C194.051 598.273 187.552 599.34 187.552 599.34C183.069 597.641 178.895 595.213 175.199 592.154C169.765 575.578 167.004 558.239 167.018 540.791C167.018 450.17 240.292 376.71 330.679 376.71C332.868 376.71 335.058 376.753 337.225 376.848C328.928 382.825 310.836 396.242 304.719 403.859C296.671 413.881 303.947 430.319 308.428 433.65C312.909 436.981 319.747 441.344 314.047 452.39Z" fill="white"/>
<path d="M320.193 432.811C320.193 432.811 332.757 444.688 327.572 451.34C322.387 457.993 312.235 467.451 314.424 470.558C316.613 473.665 325.747 480.52 333.826 479.836C341.904 479.152 351.978 469.663 359.61 463.437C367.241 457.21 379.015 459.086 380.951 457.709C382.887 456.332 386.398 449.047 377.972 442.867C369.546 436.688 365.675 433.026 361.631 430.104C357.588 427.182 310.836 422.883 320.193 432.811Z" fill="white"/>
<path d="M290.817 699.941C284.889 698.457 279.05 696.641 273.325 694.501C230.604 678.541 197.351 645.634 180.071 605.089C180.071 605.089 194.566 610.18 212.924 607.202C231.282 604.224 246.061 603.82 257.912 614.518C269.763 625.215 251.902 631.408 259.405 645.591C266.908 659.774 270.565 652.958 277.965 670.188C280.979 677.202 287.108 688.787 290.817 699.941Z" fill="white"/>
<path d="M342.947 608.674L240.18 505.647L164.562 581.452L147.282 564.127L240.18 470.993L342.947 574.02L431.008 485.736L448.289 503.061L342.947 608.674Z" fill="#EFC55E"/>
<path d="M468.441 526.096L490.744 442.652L407.516 465.012L468.441 526.096Z" fill="#EFC55E"/>
<path d="M304.14 440.027L282.884 445.733L288.525 451.388L266.398 473.571L240.159 447.261L216.435 471.045L220.848 475.468L240.159 456.113L266.398 482.418L292.937 455.811L298.444 461.332L304.14 440.027Z" fill="#EFC55E"/>
<path d="M409.156 389.869C408.186 389.869 407.228 390.076 406.344 390.476C405.324 388.615 403.862 387.035 402.088 385.875C400.314 384.715 398.283 384.011 396.173 383.824C394.063 383.638 391.94 383.975 389.991 384.807C388.042 385.638 386.328 386.938 384.999 388.591C383.633 387.942 382.126 387.65 380.618 387.742C379.109 387.834 377.649 388.307 376.372 389.117C375.095 389.927 374.043 391.047 373.314 392.374C372.585 393.702 372.203 395.192 372.203 396.707H415.985C415.984 395.808 415.807 394.919 415.464 394.089C415.12 393.259 414.617 392.505 413.983 391.87C413.349 391.235 412.596 390.732 411.768 390.388C410.94 390.045 410.052 389.869 409.156 389.869Z" fill="#E4E4E4"/>
<path d="M172.645 526.892C171.675 526.892 170.717 527.099 169.833 527.498C168.813 525.638 167.351 524.058 165.577 522.897C163.803 521.737 161.772 521.033 159.662 520.847C157.552 520.661 155.429 520.998 153.48 521.829C151.531 522.661 149.817 523.96 148.488 525.614C147.122 524.965 145.615 524.673 144.107 524.764C142.599 524.856 141.138 525.329 139.861 526.139C138.584 526.949 137.532 528.07 136.803 529.397C136.074 530.724 135.692 532.214 135.692 533.729H179.474C179.473 532.831 179.296 531.941 178.953 531.111C178.609 530.281 178.106 529.528 177.472 528.893C176.838 528.258 176.085 527.754 175.257 527.411C174.429 527.067 173.541 526.891 172.645 526.892Z" fill="#E4E4E4"/>
<path d="M287.323 386.052C285.83 386.048 284.381 386.555 283.215 387.489C282.289 385.62 280.879 384.034 279.132 382.897C277.386 381.76 275.368 381.114 273.287 381.026C271.207 380.938 269.141 381.412 267.306 382.397C265.47 383.383 263.932 384.844 262.852 386.629C262.012 386.396 261.132 386.34 260.269 386.466C259.406 386.592 258.578 386.897 257.839 387.36C256.692 385.563 254.996 384.187 253.003 383.438C251.01 382.689 248.829 382.608 246.787 383.208C244.744 383.807 242.951 385.054 241.675 386.762C240.4 388.469 239.711 390.546 239.712 392.679H293.929C293.929 391.809 293.759 390.947 293.427 390.143C293.095 389.339 292.609 388.609 291.995 387.993C291.382 387.378 290.653 386.89 289.852 386.557C289.05 386.224 288.191 386.052 287.323 386.052Z" fill="#E4E4E4"/>
<path d="M554.794 430.728C552.262 429.527 549.518 428.838 546.719 428.7C543.921 428.562 541.123 428.977 538.485 429.923C535.847 430.869 533.421 432.327 531.345 434.213C529.269 436.099 527.584 438.377 526.385 440.916C525.187 443.455 524.5 446.206 524.362 449.011C524.224 451.816 524.639 454.622 525.583 457.266C526.526 459.911 527.981 462.343 529.862 464.425C531.743 466.506 534.015 468.195 536.548 469.397C536.977 469.599 537.406 469.792 537.835 469.965C539.785 470.739 541.839 471.218 543.93 471.385C548.91 471.793 553.874 470.437 557.958 467.552C562.042 464.668 564.987 460.438 566.28 455.6C567.573 450.762 567.131 445.623 565.032 441.078C562.933 436.532 559.31 432.87 554.794 430.728ZM560.125 456.922C558.392 460.599 555.33 463.478 551.558 464.975C547.787 466.473 543.588 466.476 539.814 464.986C539.484 464.852 539.153 464.71 538.827 464.555C535.968 463.199 533.574 461.023 531.949 458.302C530.324 455.582 529.539 452.439 529.695 449.272C529.851 446.105 530.941 443.055 532.826 440.508C534.711 437.962 537.306 436.033 540.285 434.965C543.263 433.898 546.491 433.74 549.559 434.511C552.627 435.282 555.398 436.948 557.522 439.298C559.645 441.649 561.026 444.577 561.49 447.714C561.953 450.851 561.478 454.055 560.125 456.922Z" fill="white"/>
<path d="M531.521 457.507L526.8 459.99C524.743 456.047 523.961 451.56 524.564 447.152C525.168 442.744 527.125 438.634 530.165 435.393L534.049 439.063C531.771 441.494 530.304 444.577 529.852 447.882C529.401 451.187 529.987 454.551 531.53 457.507H531.521Z" fill="#405BA8"/>
<path d="M539.831 464.986L537.874 469.965C537.445 469.792 537.015 469.599 536.586 469.397C532.391 467.416 528.958 464.112 526.812 459.99L531.534 457.507C533.141 460.595 535.713 463.071 538.857 464.555C539.17 464.71 539.5 464.852 539.831 464.986Z" fill="#7094FB"/>
<path d="M543.969 471.385C541.878 471.218 539.824 470.739 537.874 469.965L539.831 464.986C541.293 465.563 542.832 465.921 544.398 466.049L543.969 471.385Z" fill="#7094FB"/>
<path d="M539.136 485.482H499.299V484.69H538.342V467.77H539.136V485.482Z" fill="#7094FB"/>
<path d="M520.267 476.428H499.299V481.192H520.267V476.428Z" fill="#DEDEDE"/>
<path d="M514.652 503.172H507.072V553.584H514.652V503.172Z" fill="white"/>
<path d="M533.483 513.414H525.898V553.584H533.483V513.414Z" fill="white"/>
<path d="M552.313 505.879H544.729V553.584H552.313V505.879Z" fill="white"/>
<path d="M514.652 521.956H507.072V553.584H514.652V521.956Z" fill="url(#paint2_radial_1_3)"/>
<path d="M533.483 528.385H525.898V553.584H533.483V528.385Z" fill="url(#paint3_radial_1_3)"/>
<path d="M552.313 523.656H544.729V553.584H552.313V523.656Z" fill="url(#paint4_radial_1_3)"/>
<path d="M144.277 455.23H96.027V459.977H144.277V455.23Z" fill="#5F7DD1"/>
<path d="M144.277 468.002H96.027V472.749H144.277V468.002Z" fill="white"/>
<path d="M144.277 480.779H96.027V485.529H144.277V480.779Z" fill="white"/>
<path d="M162.176 455.23H154.123V459.977H162.176V455.23Z" fill="#5F7DD1"/>
<path d="M162.176 468.002H154.123V472.749H162.176V468.002Z" fill="white"/>
<path d="M162.176 480.779H154.123V485.529H162.176V480.779Z" fill="white"/>
<path d="M340.539 323.38C340.183 323.005 339.783 322.675 339.346 322.399C338.761 322.019 338.148 321.684 337.513 321.397C336.776 321.058 336.012 320.782 335.229 320.57C334.387 320.343 333.524 320.199 332.654 320.14L332.624 329.534L333.482 329.719C334.975 330.079 336.447 330.523 337.89 331.049C339.08 331.473 340.2 332.074 341.213 332.83C342.103 333.515 342.82 334.399 343.307 335.412C343.835 336.572 344.087 337.839 344.046 339.113C344.083 340.53 343.789 341.936 343.187 343.218C342.625 344.337 341.807 345.307 340.801 346.05C339.736 346.827 338.537 347.401 337.264 347.741C335.852 348.122 334.399 348.323 332.937 348.339V353.103H330.581V348.244C328.464 348.097 326.378 347.655 324.383 346.932C322.444 346.225 320.629 345.216 319.004 343.941L321.326 339.59C321.76 340.039 322.244 340.436 322.769 340.774C323.475 341.241 324.217 341.653 324.988 342.005C325.886 342.425 326.814 342.777 327.765 343.059C328.792 343.367 329.845 343.583 330.911 343.704L330.941 334.31C330.761 334.25 330.572 334.194 330.379 334.147C330.187 334.104 329.998 334.051 329.812 333.988C328.393 333.617 326.996 333.166 325.627 332.636C324.553 332.228 323.553 331.647 322.666 330.915C321.906 330.275 321.298 329.474 320.884 328.57C320.456 327.542 320.251 326.435 320.283 325.321C320.264 323.965 320.532 322.62 321.069 321.375C321.576 320.242 322.32 319.231 323.249 318.41C324.217 317.563 325.333 316.905 326.542 316.469C327.876 315.991 329.27 315.701 330.684 315.609V311.026H333.04V315.609C334.902 315.716 336.736 316.121 338.47 316.809C340.029 317.425 341.503 318.238 342.857 319.228L340.539 323.38ZM325.584 324.512C325.547 325.062 325.649 325.613 325.881 326.114C326.113 326.614 326.467 327.047 326.911 327.374C328.153 328.167 329.522 328.74 330.958 329.069L330.988 320.127C329.148 320.21 327.789 320.641 326.911 321.418C326.475 321.803 326.13 322.28 325.9 322.815C325.671 323.35 325.563 323.93 325.584 324.512ZM338.62 339.625C338.649 339.028 338.518 338.434 338.241 337.904C337.964 337.374 337.551 336.929 337.045 336.613C335.663 335.788 334.172 335.164 332.615 334.758L332.585 343.747C334.517 343.727 336.005 343.369 337.049 342.672C337.557 342.349 337.971 341.897 338.248 341.362C338.526 340.826 338.657 340.227 338.629 339.625H338.62Z" fill="#EEBD5D"/>
<path d="M591.146 510.088H565.551C564.525 510.088 563.701 509.008 563.701 507.674C563.701 506.34 564.525 505.259 565.551 505.259H591.146C592.167 505.259 592.996 506.34 592.996 507.674C592.996 509.008 592.167 510.088 591.146 510.088Z" fill="#EEBD5D"/>
<path d="M580.754 494.841V520.506C580.754 521.53 579.677 522.36 578.346 522.36C577.016 522.36 575.938 521.53 575.938 520.506V494.841C575.938 493.817 577.02 492.987 578.346 492.987C579.672 492.987 580.754 493.817 580.754 494.841Z" fill="#EEBD5D"/>
<path d="M262.917 349.6H237.317C236.296 349.6 235.467 348.52 235.467 347.186C235.467 345.852 236.296 344.772 237.317 344.772H262.917C263.938 344.772 264.767 345.852 264.767 347.186C264.767 348.52 263.917 349.6 262.917 349.6Z" fill="#EEBD5D"/>
<path d="M262.917 361.683H237.317C236.296 361.683 235.467 360.603 235.467 359.269C235.467 357.935 236.296 356.855 237.317 356.855H262.917C263.938 356.855 264.767 357.935 264.767 359.269C264.767 360.603 263.917 361.683 262.917 361.683Z" fill="#EEBD5D"/>
<path d="M112.445 531.061H86.85C85.8284 531.061 85 529.981 85 528.647C85 527.313 85.8284 526.233 86.85 526.233H112.445C113.467 526.233 114.299 527.313 114.299 528.647C114.299 529.981 113.467 531.061 112.445 531.061Z" fill="#EEBD5D"/>
<path d="M402.468 350.731C401.537 350.74 400.614 350.569 399.747 350.228C398.942 349.914 398.202 349.451 397.567 348.864C396.953 348.291 396.455 347.606 396.099 346.846C395.734 346.065 395.547 345.212 395.553 344.35C395.552 343.494 395.738 342.647 396.099 341.871C396.448 341.106 396.947 340.42 397.567 339.853C398.206 339.277 398.945 338.822 399.747 338.51C400.614 338.169 401.537 337.998 402.468 338.007C403.393 338.002 404.311 338.173 405.172 338.51C405.981 338.82 406.725 339.275 407.37 339.853C407.99 340.42 408.489 341.106 408.838 341.871C409.199 342.647 409.385 343.494 409.383 344.35C409.389 345.212 409.203 346.065 408.838 346.846C408.482 347.606 407.983 348.291 407.37 348.864C406.73 349.453 405.984 349.916 405.172 350.228C404.311 350.565 403.393 350.736 402.468 350.731ZM397.901 366.275L409.714 352.457L420.612 338.11L423.187 340.378L411.748 353.946L400.481 368.577L397.901 366.275ZM402.468 347.917C402.872 347.92 403.269 347.82 403.623 347.625C403.979 347.421 404.296 347.157 404.563 346.846C404.851 346.514 405.072 346.129 405.215 345.714C405.367 345.275 405.444 344.814 405.443 344.35C405.468 343.436 405.154 342.545 404.563 341.85C404.315 341.53 403.997 341.271 403.634 341.093C403.271 340.915 402.873 340.822 402.468 340.821C402.066 340.816 401.669 340.917 401.318 341.114C400.96 341.316 400.641 341.58 400.374 341.893C400.091 342.219 399.871 342.596 399.726 343.003C399.569 343.435 399.491 343.891 399.494 344.35C399.466 345.266 399.771 346.16 400.352 346.867C400.6 347.194 400.92 347.459 401.287 347.641C401.655 347.823 402.059 347.918 402.468 347.917ZM418.642 368.663C417.711 368.672 416.787 368.501 415.92 368.159C415.119 367.848 414.38 367.393 413.74 366.817C413.124 366.254 412.626 365.576 412.272 364.82C411.913 364.037 411.727 363.184 411.727 362.322C411.727 361.46 411.913 360.608 412.272 359.824C412.63 359.064 413.128 358.38 413.74 357.806C414.375 357.219 415.115 356.756 415.92 356.442C417.195 355.935 418.586 355.795 419.936 356.036C421.286 356.277 422.543 356.89 423.565 357.806C424.186 358.371 424.686 359.058 425.033 359.824C425.565 360.994 425.709 362.304 425.445 363.562C425.181 364.82 424.522 365.961 423.565 366.817C422.915 367.389 422.169 367.844 421.363 368.159C420.497 368.501 419.573 368.672 418.642 368.663ZM418.642 365.849C419.046 365.854 419.444 365.753 419.796 365.556C420.152 365.354 420.47 365.092 420.736 364.781C421.018 364.451 421.238 364.074 421.389 363.667C421.542 363.234 421.619 362.779 421.616 362.32C421.622 361.839 421.536 361.361 421.363 360.913C421.21 360.502 420.992 360.12 420.715 359.781C420.457 359.466 420.137 359.209 419.775 359.024C419.423 358.846 419.035 358.753 418.642 358.753C418.24 358.749 417.843 358.85 417.492 359.045C417.134 359.248 416.814 359.511 416.547 359.824C416.261 360.156 416.041 360.54 415.899 360.956C415.744 361.394 415.666 361.855 415.667 362.32C415.643 363.234 415.956 364.124 416.547 364.82C416.795 365.14 417.113 365.399 417.476 365.578C417.839 365.757 418.237 365.851 418.642 365.853V365.849Z" fill="#EEBD5D"/>
<path d="M453.362 363.026H452.912V410.658H453.362V363.026Z" fill="#F2F2F2"/>
<path d="M485.563 363.026H485.108V410.658H485.563V363.026Z" fill="#F2F2F2"/>
<path d="M517.76 363.026H517.309V410.658H517.76V363.026Z" fill="#F2F2F2"/>
<path d="M549.961 363.026H549.51V410.658H549.961V363.026Z" fill="#F2F2F2"/>
<path d="M582.162 363.026H581.711V410.658H582.162V363.026Z" fill="#F2F2F2"/>
<path d="M458.264 413.481H453.139V415.137H458.264V413.481Z" fill="white"/>
<path d="M460.852 357.156H453.139V358.395H460.852V357.156Z" fill="white"/>
<path d="M464.08 359.454H453.139V360.698H464.08V359.454Z" fill="white"/>
<path d="M494.041 357.156H484.988V358.395H494.041V357.156Z" fill="white"/>
<path d="M490.778 359.454H484.988V360.698H490.778V359.454Z" fill="white"/>
<path d="M523.374 357.156H517.764V358.395H523.374V357.156Z" fill="white"/>
<path d="M524.306 359.454H517.764V360.698H524.306V359.454Z" fill="white"/>
<path d="M558.134 357.156H549.961V358.395H558.134V357.156Z" fill="white"/>
<path d="M556.502 359.454H549.961V360.698H556.502V359.454Z" fill="white"/>
<path d="M586.815 357.156H581.934V358.395H586.815V357.156Z" fill="white"/>
<path d="M585.84 359.454H581.934V360.698H585.84V359.454Z" fill="white"/>
<path d="M490.461 413.481H485.336V415.137H490.461V413.481Z" fill="white"/>
<path d="M522.889 413.481H517.764V415.137H522.889V413.481Z" fill="white"/>
<path d="M555.086 413.481H549.961V415.137H555.086V413.481Z" fill="white"/>
<path d="M587.283 413.481H582.162V415.137H587.283V413.481Z" fill="white"/>
<path d="M570.774 396.509C560.73 396.509 552 392.154 542.9 387.618C531.663 382.024 520.043 376.224 504.565 377.807C494.693 378.823 488.474 382.859 483.001 386.414C478.043 389.637 473.356 392.473 467.012 392.718C456.753 393.105 453.195 388.72 453.135 388.453V385.639C453.135 385.686 455.388 390.609 466.999 390.553C472.716 390.523 476.94 387.778 481.825 384.598C487.503 380.906 493.942 376.718 504.346 375.651C520.447 374.003 532.35 379.955 543.862 385.673C555.906 391.698 567.401 397.292 581.934 392.425V394.74C578.344 395.971 574.568 396.569 570.774 396.509Z" fill="url(#paint5_radial_1_3)"/>
<path d="M510.493 395.967C503.076 395.967 497.187 390.971 491.439 386.069C487.078 382.36 482.55 378.565 477.322 376.693C461.368 370.982 453.208 381.426 453.135 381.504V378.332C453.221 378.225 454.676 376.327 458.891 374.52C462.724 372.871 469.158 371.555 478.03 374.653C483.653 376.611 488.332 380.578 492.839 384.417C501.999 392.201 509.909 398.927 523.645 388.393C534.049 380.419 543.857 372.815 553.511 370.04C562.954 367.325 572.792 369.313 582.003 378.547L581.934 381.426C562.366 361.726 545.703 374.205 524.958 390.114C519.46 394.336 514.725 395.967 510.493 395.967Z" fill="white"/>
<path d="M201.133 367.338C198.331 358.627 192.33 351.311 184.347 346.873C176.363 342.435 166.995 341.207 158.141 343.438C157.368 343.631 156.592 343.868 155.823 344.105C149.051 346.299 143.079 350.457 138.664 356.054C134.249 361.65 131.588 368.434 131.018 375.546C130.448 382.659 131.995 389.781 135.463 396.012C138.931 402.244 144.164 407.304 150.5 410.554C156.836 413.803 163.992 415.096 171.061 414.269C178.131 413.442 184.797 410.532 190.216 405.906C195.636 401.281 199.566 395.148 201.509 388.284C203.452 381.42 203.321 374.132 201.133 367.342V367.338ZM175.186 404.173C171.794 405.343 168.204 405.824 164.625 405.586C161.046 405.349 157.55 404.398 154.341 402.79C151.133 401.182 148.277 398.949 145.939 396.222C143.602 393.494 141.831 390.326 140.729 386.904C139.627 383.482 139.217 379.874 139.522 376.291C139.828 372.708 140.843 369.222 142.508 366.037C144.174 362.852 146.456 360.032 149.221 357.742C151.986 355.451 155.179 353.737 158.613 352.698C159.188 352.509 159.768 352.345 160.33 352.199C162.901 351.545 165.554 351.28 168.202 351.411C174.509 351.722 180.507 354.24 185.153 358.527C189.799 362.814 192.798 368.599 193.628 374.874C194.459 381.149 193.068 387.518 189.699 392.871C186.329 398.225 181.193 402.224 175.186 404.173Z" fill="white"/>
<path d="M144.805 362.892L137.431 357.703C133.133 363.849 130.852 371.185 130.904 378.691C130.957 386.197 133.34 393.5 137.722 399.586L145.019 394.293C141.735 389.727 139.95 384.25 139.911 378.62C139.873 372.991 141.583 367.49 144.805 362.879V362.892Z" fill="#405BA8"/>
<path d="M160.33 352.199L158.141 343.438C157.368 343.631 156.592 343.868 155.823 344.105C148.376 346.503 141.917 351.279 137.431 357.703L144.805 362.892C148.173 358.073 153.023 354.492 158.613 352.698C159.167 352.509 159.746 352.345 160.33 352.199Z" fill="#5F7DD1"/>
<path d="M168.64 342.413C165.108 342.238 161.57 342.591 158.141 343.459L160.33 352.22C162.901 351.567 165.554 351.301 168.202 351.433L168.64 342.413Z" fill="#7094FB"/>
<path d="M166.893 440.092H218.706V439.3H167.683V414.604H166.893V440.092Z" fill="#EEBD5D"/>
<path d="M183.049 435.801H218.701V431.038H183.049V435.801Z" fill="#DEDEDE"/>
<path d="M422.226 754.621C422.226 754.621 420.814 757.263 419.891 758.313C418.968 759.363 415.435 761.235 415.418 764.338C415.397 767.712 421.372 766.774 423.711 766.653C426.05 766.533 426.226 764.725 427.209 762.815C428.192 760.904 429.188 761.222 429.355 759.682C429.523 758.141 428.398 754.608 428.398 754.608L422.226 754.621Z" fill="#26283A"/>
<path d="M428.338 753.601C428.439 754.089 428.512 754.582 428.557 755.077C428.506 755.112 421.934 756.291 421.968 755.077C422.04 754.36 422.246 753.662 422.574 753.021L428.338 753.601Z" fill="#807F7D"/>
<path d="M448.641 603.54L439.073 594.938L444.563 590.334L453.191 599.392L448.641 603.54Z" fill="#545888"/>
<path d="M448.379 602.645L440.095 595.201L444.851 591.216L452.315 599.056L448.379 602.645Z" fill="#3F3D44"/>
<path d="M454.092 603.704C454.092 603.704 452.646 603.368 453.079 601.733C453.513 600.098 452.847 599.715 452.847 599.715L447.787 604.311C447.787 604.311 450.225 606.557 450.967 606.647C451.71 606.738 454.835 604.599 454.092 603.704Z" fill="#D19E80"/>
<path d="M447.787 604.31C447.787 604.31 444.726 602.443 444.439 602.159C443.656 601.451 442.918 600.695 442.228 599.895C441.67 599.16 444.061 599.108 444.709 599.895C445.182 600.427 445.804 600.802 446.495 600.971C446.924 601.143 449.396 601.625 449.928 602.383C450.461 603.14 447.787 604.31 447.787 604.31Z" fill="#D19E80"/>
<path d="M451.903 598.716C451.867 598.776 451.815 598.823 451.752 598.854C451.69 598.885 451.62 598.897 451.551 598.889C451.483 598.881 451.417 598.854 451.363 598.811C451.309 598.767 451.269 598.709 451.246 598.643C450.954 598.114 450.984 596.922 451.727 597.197C452.47 597.473 451.903 598.716 451.903 598.716Z" fill="#D19E80"/>
<path d="M450.967 597.111C450.967 597.111 450.834 598.006 450.375 597.598C449.916 597.189 449.456 595.691 450.263 595.734C451.07 595.777 450.967 597.111 450.967 597.111Z" fill="#D19E80"/>
<path d="M449.654 595.799C449.654 595.799 449.654 596.879 449.117 596.565C448.714 596.328 448.147 594.383 448.95 594.413C449.752 594.443 449.654 595.799 449.654 595.799Z" fill="#D19E80"/>
<path d="M449.632 606.372L454.311 602.159L473.12 617.788C475.966 619.75 469.823 625.474 467.497 624.85C461.119 623.128 450.242 622.75 444.507 619.57C435.811 614.746 441.417 606.32 444.185 607.159C446.954 607.998 457.122 613.438 457.122 613.438L449.632 606.372Z" fill="#363957"/>
<path d="M457.689 754.122C457.689 754.122 460.569 757.345 463.492 758.021C466.415 758.696 468.463 759.557 468.484 761.412C468.506 763.266 460.071 764.48 456.723 762.612C451.731 759.828 451.225 760.667 450.667 759.277C450.109 757.887 451.332 754.165 451.298 753.722C451.25 753.175 457.689 754.122 457.689 754.122Z" fill="#26283A"/>
<path d="M457.359 752.582C457.495 753.089 457.603 753.603 457.68 754.122C457.625 754.157 451.092 754.935 451.289 753.722C451.448 752.741 451.676 751.674 451.676 751.674L457.359 752.582Z" fill="#807F7D"/>
<path d="M451.426 662.163C451.426 662.163 453.8 685.297 455.036 693.215C456.483 702.471 456.972 710.122 457.376 714.916C457.882 720.94 457.981 750.594 458.333 752.354C458.685 754.114 450.465 752.84 450.465 752.84C450.465 752.84 446.417 714.111 444.885 707.656C443.481 701.679 438.266 675.946 436.983 677.577C435.699 679.208 434.111 707.609 433.158 712.321C432.206 717.033 429.321 753.941 429.321 753.941C429.321 753.941 422.775 755.232 421.033 753.774C421.033 753.774 420.243 721.964 420.848 713.13C421.08 709.761 416.912 672.74 422.256 657.838C425.102 649.989 451.426 662.163 451.426 662.163Z" fill="#2E3048"/>
<path d="M410.701 665.446C410.701 665.446 414.71 666.664 416.384 666.358C418.058 666.053 417.217 645.41 417.281 641.116C417.333 637.635 419.234 628.439 419.234 628.439V628.477C419.423 629.166 421.99 638.71 422.076 643.293C422.17 648.053 421.458 666.259 421.458 666.259L427.836 669.272L449.881 669.909L453.092 669.956C453.092 669.956 452.585 659.168 452.397 655.467C452.281 653.117 451.826 648.909 451.942 644.812C451.942 644.812 451.869 640.509 452.298 638.633C452.341 630.422 452.839 622.281 452.839 622.281C453.125 618.551 453.317 615.067 453.414 611.828C452.517 611.355 451.439 610.8 450.581 610.387C447.911 609.096 444.194 607.4 441.807 606.303C440.412 605.657 439.048 605.188 439.048 605.188C439.048 605.188 429.514 604.272 428.746 604.328C427.724 604.608 426.721 604.951 425.741 605.356C422.363 606.647 415.848 609.264 414.809 610.008C413.285 611.101 410.087 637.058 409.924 638.874C409.667 642.144 410.701 665.446 410.701 665.446Z" fill="#CD7250"/>
<path d="M428.797 604.302C429.497 610.757 436.631 610.757 436.631 610.757C436.631 610.757 439.584 608.175 439.49 606.251C439.49 606.212 439.49 606.169 439.49 606.126C439.442 605.774 439.06 605.335 439.005 604.629C439.005 604.534 439.005 604.435 439.005 604.336C439.005 604.237 439.005 604.143 439.005 604.048C439.005 603.557 439.035 603.075 439.065 602.757C439.065 602.641 439.065 602.538 439.09 602.46C439.116 602.383 439.112 602.275 439.112 602.275C439.112 602.275 437.961 601.057 436.502 599.611C433.927 597.081 430.433 593.836 430.428 595.127C430.432 595.21 430.442 595.292 430.459 595.373C431.055 598.243 428.797 604.302 428.797 604.302Z" fill="#DBA585"/>
<path d="M409.435 678.76C409.435 678.76 409.808 673.639 411.177 672.865C412.547 672.09 411.735 673.665 411.735 673.665C411.735 673.665 410.92 677.37 410.727 678.872C410.294 678.872 409.862 678.834 409.435 678.76Z" fill="#8C8F93"/>
<path d="M422.93 682.371L404.936 676.957L404.653 699.269L422.475 710.35L422.93 682.371Z" fill="#8C8F93"/>
<path d="M422.475 710.35L420.204 710.733L402.876 699.562L403.434 677.039L404.936 676.957L422.475 710.35Z" fill="#8C8F93"/>
<path d="M433.661 608.097L436.631 610.744C436.631 610.744 433.197 610.516 432.562 609.943L433.661 608.097Z" fill="#9D9CA3"/>
<path d="M452.491 666.483C452.491 666.483 438.541 667.675 426.308 666.483V670.502C426.308 670.502 444.653 673.157 453.083 669.736L452.491 666.483Z" fill="#2E3048"/>
<path d="M440.593 605.769C440.593 605.769 442.859 611.114 444.563 623.06C445.22 627.647 446.43 635.371 447.31 643.25C448.006 649.464 449.594 655.837 450.096 660.596C450.615 665.524 452.19 680.038 452.19 680.038L456.006 677.628C456.552 677.121 457.315 676.467 457.092 675.757C456.045 672.361 454.036 661.126 452.852 651.349C452.796 650.875 452.74 650.411 452.684 649.946C452.684 649.924 452.684 649.899 452.684 649.873C452.457 647.915 452.255 646.039 452.139 644.322C452.055 643.028 452.112 641.73 452.311 640.449C452.843 631.662 453.109 622.405 453.109 622.405C453.384 618.614 453.538 615.068 453.654 611.768C452.736 611.381 451.632 610.546 450.675 610.09C448.873 609.229 446.709 608.257 444.666 607.318C443.7 606.888 442.58 606.656 441.807 606.303L440.593 605.769Z" fill="#363957"/>
<path d="M417.573 641.309C417.277 645.298 418.959 667.348 417.281 667.658C415.603 667.968 409.435 666.608 409.435 666.608C409.435 666.608 408.662 642.828 408.911 640.337C409.091 638.521 411.972 611.303 413.495 610.214C414.354 609.582 420.882 607.267 424.076 606.006C424.66 605.774 426.51 604.999 427.033 604.797C427.711 605.554 433.613 619.428 434.176 630.276C434.347 633.572 433.575 640.535 432.991 646.224C432.364 652.291 431.673 657.029 431.162 662.103C430.162 672.103 429.446 680.055 429.446 680.055L419.522 675.627C417.916 674.823 415.689 671.514 416.294 669.822C418.59 663.368 421.479 652.369 421.483 646.714C421.483 646.714 420.376 632.871 419.5 629.828C419.517 629.824 417.946 636.245 417.573 641.309Z" fill="#363957"/>
<path d="M415.723 667.4C415.723 667.4 416.217 669.62 416.878 671.845C417.539 674.07 418.165 674.788 417.865 676.049C417.642 677.004 416.551 677.71 416.285 677.396C416.019 677.082 415.938 673.36 414.401 673.355C412.864 673.351 414.792 677.973 413.882 677.62C412.972 677.267 409.469 675.279 409.722 673.407C409.976 671.535 411.405 670.197 411.353 667.383C411.311 664.839 412.117 663.789 412.117 663.789L415.723 667.4Z" fill="#DBA585"/>
<path d="M414.556 673.2C414.556 673.2 416.594 673.756 416.371 680.705L414.053 680.275C414.053 680.275 414.156 676.436 413.495 674.332C413.495 674.336 413.633 672.981 414.556 673.2Z" fill="#8C8F93"/>
<path d="M417.835 652.459L417.732 669.986C414.889 669.734 412.096 669.082 409.435 668.05L409.1 643.336L417.835 652.459Z" fill="#363957"/>
<path d="M439.876 608.562C439.876 608.562 440.129 612.22 437.047 612.306C433.965 612.392 431.51 609.418 431.51 609.418L436.631 610.744L439.751 608.097L439.876 608.562Z" fill="#C7C5CE"/>
<path d="M429.209 603.097C429.209 603.097 432.133 606.862 433.661 608.097L431.158 612.306L426.84 604.87L429.209 603.097Z" fill="#E7E4F0"/>
<path d="M439.271 608.782L436.631 610.74C436.631 610.74 438.953 606.501 438.996 604.612L439.271 608.782Z" fill="#9D9CA3"/>
<path d="M438.996 604.616L440.691 605.817L442.584 611.467L439.275 608.786L438.996 604.616Z" fill="#E7E4F0"/>
<path d="M447.396 585.764C447.396 585.764 449.259 590.304 448.044 590.854C447.04 591.285 448.654 595.743 448.847 596.449C449.04 597.154 447.01 597.455 446.538 597.856C446.065 598.256 444.25 603.583 442.597 603.575C440.945 603.566 433.845 600.222 432.06 597.92C430.274 595.618 429.617 586 431.373 582.158C433.128 578.315 444.104 577.82 447.396 585.764Z" fill="#DBA585"/>
<path d="M447.761 586.745C447.761 586.745 450.607 582.347 446.683 578.453C442.76 574.558 434.21 579.765 433.296 579.903C432.381 580.04 426.913 581.194 428.797 589.37C430.514 596.776 430.536 596.849 430.536 596.849C430.536 596.849 432.682 592.997 433.669 592.421C435.227 591.517 438.391 592.107 438.391 592.107C438.391 592.107 437.3 587.92 439.726 587.597C442.151 587.274 445.464 585.6 447.761 586.745Z" fill="#2E3048"/>
<path d="M436.099 589.538C435.948 588.965 435.523 586.525 433.343 587.696C431.162 588.866 433.995 593.72 434.343 593.793C434.691 593.867 437.365 594.37 436.099 589.538Z" fill="#DBA585"/>
<path d="M432.343 598.26C432.39 598.385 434.013 602.331 438.987 604.323C438.987 604.229 438.987 604.13 438.987 604.035C438.987 603.544 439.017 603.062 439.048 602.744C439.048 602.628 439.047 602.525 439.073 602.447C439.069 602.43 433.751 599.913 432.343 598.26Z" fill="#997761"/>
<path d="M523.203 591.065C522.245 594.211 523.469 597.374 525.937 598.127C528.405 598.88 531.178 596.943 532.139 593.824C533.101 590.704 531.869 587.515 529.405 586.762C526.941 586.009 524.16 587.924 523.203 591.065Z" fill="#CD7250"/>
<path d="M511.115 607.973C511.115 607.973 507.63 609.07 505.634 611.815C503.638 614.561 503.333 618.395 503.243 620.357C503.153 622.319 502.621 629.902 502.621 629.902L508.54 631.567L511.115 607.973Z" fill="#363957"/>
<path d="M486.044 760.297C486.044 760.297 481.606 766.287 482.215 767.238C482.825 768.189 487.491 768.323 490.332 767.238C493.174 766.154 493.238 759.135 494.521 756.119C495.062 754.854 493.907 751.127 492.294 750.86C491.14 750.743 489.976 750.923 488.911 751.381C488.911 751.381 490.59 755.628 486.044 760.297Z" fill="#2E3048"/>
<path d="M488.881 751.334C488.303 752.954 487.872 754.623 487.594 756.321C487.31 758.339 484.434 762.625 484.589 763.168C484.743 763.71 488.375 764.2 489.86 762.802C491.345 761.403 492.306 757.341 492.633 754.905C492.762 753.76 492.994 752.628 493.324 751.523C493.324 751.523 490.302 749.84 488.881 751.334Z" fill="#DBA585"/>
<path d="M524.662 760.396C524.662 760.396 520.37 766.287 520.996 767.238C521.623 768.189 526.272 768.323 529.113 767.238C531.955 766.154 532.019 759.135 533.302 756.119C533.843 754.854 532.689 751.127 531.075 750.86C529.461 750.594 527.555 751.441 527.555 751.441C527.555 751.441 529.212 755.732 524.662 760.396Z" fill="#2E3048"/>
<path d="M527.555 751.441C527.362 753.035 527.076 754.615 526.697 756.175C526.151 758.141 523.263 762.63 523.379 763.159C523.495 763.688 527.164 764.192 528.654 762.793C530.143 761.395 531.294 757.35 531.427 754.897C531.524 753.539 531.411 752.175 531.092 750.852C531.092 750.852 528.976 749.948 527.555 751.441Z" fill="#DBA585"/>
<path d="M506.184 653.965C506.184 653.965 502.376 671.725 501.501 676.196C500.625 680.667 498.178 702.32 497.917 706.004C497.655 709.687 493.942 723.557 494.118 724.873C494.294 726.19 488.615 752.603 488.615 752.603C488.615 752.603 490.555 754.165 492.598 752.745C493.65 752.009 505.046 728.015 505.046 721.439C505.046 712.351 511.751 700.487 512.618 698.452C520.653 679.565 519.056 673.79 520.121 672.564C521.185 671.337 521.258 673.321 521.872 676.041C522.486 678.76 523.795 702.251 524.581 705.229C525.366 708.207 524.756 718.294 525.194 723.376C525.632 728.458 527.551 751.463 527.551 751.463C527.551 751.463 529.04 753.795 531.126 751.523C531.556 751.033 534.723 725.902 534.813 719.852C534.903 713.801 534.994 705.462 535.161 702.845C536.784 677.779 540.762 674.199 534.491 656.461C522.756 623.223 506.184 653.965 506.184 653.965Z" fill="#DBA585"/>
<path d="M531.753 648.982C531.753 648.982 542.6 664.202 537.93 696.58C537.93 696.58 512.201 700.087 498.419 692.522C498.419 692.522 504.115 659.138 506.184 653.944C508.252 648.75 531.753 648.982 531.753 648.982Z" fill="#CD7250"/>
<path d="M494.646 755.59V761.859H493.835V757.014L494.646 755.59Z" fill="#2E3048"/>
<path d="M533.423 755.59V761.859H532.611V757.014L533.423 755.59Z" fill="#2E3048"/>
<path d="M517.193 605.735C517.193 605.735 512.502 607.693 511.116 607.972C509.729 608.252 505.038 615.193 504.098 617.754C503.158 620.314 504.098 624.153 506.038 628.658C507.978 633.163 506.149 634.682 507.038 639.175C507.926 643.668 505.059 653.294 504.892 655.798C504.724 658.303 530.985 658.707 536.148 654.146C536.148 654.146 530.959 646.353 530.294 645.243C529.628 644.132 530.182 638.065 530.792 636.507C531.401 634.949 535.479 621.691 535.479 621.691C535.479 621.691 538.805 611.518 535.801 609.182C533.191 607.146 526.083 606.423 524.804 605.98C523.525 605.537 519.803 605.339 517.193 605.735Z" fill="#363957"/>
<path d="M515.305 601.109C515.305 601.109 515.412 602.116 515.541 603.506C515.597 604.121 515.661 604.797 515.717 605.524C515.893 607.294 515.966 609.073 515.936 610.851C515.936 610.851 520.086 615.025 524.808 605.984C524.808 605.984 522.825 602.258 524.319 597.18C525.812 592.102 515.305 601.109 515.305 601.109Z" fill="#DBA585"/>
<path d="M504.844 634.674L504.149 636.374L505.638 635.306L504.844 634.674Z" fill="#DBA585"/>
<path d="M513.871 578.018C513.871 578.018 504.557 580.953 509.613 597.064C514.669 613.175 527.383 595.196 526.053 585.381C524.722 575.565 513.871 578.018 513.871 578.018Z" fill="#DBA686"/>
<path d="M508.665 587.42C512.121 590.431 516.463 592.229 521.031 592.541C521.031 592.541 524.005 596.035 524.233 597.412C524.233 597.412 532.337 583.844 522.653 578.53C512.39 572.897 505.54 584.503 508.665 587.42Z" fill="#CD7250"/>
<path d="M521.091 592.451C521.151 591.276 521.872 588.608 523.61 589.357C525.349 590.106 523.503 595.536 522.348 595.201C522.348 595.201 520.949 595.222 521.091 592.451Z" fill="#DBA686"/>
<path d="M515.524 603.506C515.579 604.121 515.644 604.797 515.7 605.524C521.086 602.86 521.906 599.018 521.932 598.897C517.824 603.51 515.524 603.506 515.524 603.506Z" fill="#997761"/>
<path d="M503.608 620.245C503.608 620.245 503.355 625.921 504.626 629.17L505.789 628.563C505.789 628.563 503.634 622.887 503.608 620.245Z" fill="#2C3D54"/>
<path d="M523.808 638.689C523.808 638.689 521.662 637.264 521.323 637.054C520.984 636.843 519.812 636.912 518.606 637.295C517.628 637.595 516.672 637.96 515.743 638.388C515.55 638.495 515.361 638.53 515.447 639.085C515.512 639.445 515.669 639.783 515.901 640.066C515.841 640.277 515.836 640.5 515.885 640.714C515.935 640.928 516.038 641.125 516.185 641.288C516.142 641.508 516.165 641.736 516.251 641.943C516.337 642.15 516.483 642.326 516.67 642.45C516.627 642.63 516.638 642.819 516.702 642.994C516.765 643.168 516.878 643.32 517.026 643.431C517.526 643.507 518.032 643.528 518.537 643.496C519.125 643.371 522.198 642.661 524.353 642.088C524.353 642.088 525.246 641.559 523.808 638.689Z" fill="#DBA585"/>
<path d="M516.395 638.211C516.395 638.211 510.815 639.438 510.892 639.868C510.991 640.5 512.373 640.729 516.601 639.562C520.713 638.426 516.395 638.211 516.395 638.211Z" fill="#DBA585"/>
<path d="M530.122 608.248C531.384 607.482 535.599 607.564 537.247 611.536C538.895 615.507 540.252 620.022 541.398 622.091C542.544 624.161 546.48 633.633 545.312 634.773C544.145 635.913 541.75 637.26 538.144 638.112C534.419 638.973 523.623 643.022 523.623 643.022L522.245 637.161C522.245 637.161 526.997 634.893 529.736 633.787C532.174 632.806 531.882 632.548 535.891 631.124C535.891 631.124 533.586 625.228 532.547 623.653C531.508 622.078 524.435 611.695 530.122 608.248Z" fill="#363957"/>
<path d="M515.421 648.677L500.973 647.506C500.652 647.48 500.342 647.378 500.068 647.21C499.794 647.042 499.563 646.812 499.393 646.538L484.422 622.19C484.232 621.881 484.127 621.527 484.118 621.164C484.109 620.802 484.197 620.443 484.371 620.125C484.546 619.807 484.801 619.541 485.112 619.354C485.422 619.167 485.776 619.067 486.138 619.062L501.621 618.894C501.993 618.89 502.359 618.987 502.68 619.176C503 619.365 503.263 619.638 503.441 619.966L517.382 645.647C517.558 645.972 517.642 646.339 517.628 646.708C517.613 647.077 517.499 647.436 517.298 647.746C517.098 648.056 516.817 648.306 516.487 648.469C516.157 648.633 515.788 648.705 515.421 648.677Z" fill="#807A76"/>
<path d="M495.191 639.726C494.554 639.106 493.979 638.426 493.474 637.695C492.663 636.511 490.04 631.989 490.259 631.705C490.478 631.421 494.431 631.326 495.144 631.971C495.856 632.617 494.444 632.866 494.444 632.866C494.444 632.866 496.59 633.09 496.44 633.697C496.29 634.304 494.994 634.127 494.994 634.127C494.994 634.127 496.711 634.459 496.462 634.988C496.213 635.517 495.367 635.517 495.367 635.517C495.367 635.517 496.899 635.711 496.711 636.296C496.522 636.881 494.097 637.428 494.418 637.914C494.729 638.494 494.987 639.1 495.191 639.726Z" fill="#DBA585"/>
<path d="M525.478 606.157C525.478 606.157 520.262 614.668 516.129 614.569C511.995 614.47 514.811 606.695 514.811 606.695C514.811 606.695 517.987 604.147 525.478 606.157Z" fill="#DBA585"/>
<path d="M498.311 634.73C499.706 636.128 501.595 636.507 502.527 635.591C503.458 634.674 503.08 632.768 501.668 631.365C500.256 629.962 498.38 629.588 497.449 630.504C496.517 631.421 496.912 633.31 498.311 634.73Z" fill="#8C8480"/>
<path d="M507.905 585.183C507.905 585.183 507.325 587.416 508.304 591.328C508.304 591.328 508.154 587.644 508.922 586.642C509.69 585.639 507.905 585.183 507.905 585.183Z" fill="#CD7250"/>
<path d="M206.069 744.384H130.215V753.614H206.069V744.384Z" fill="url(#paint6_linear_1_3)"/>
<path d="M212.078 753.236H136.225V762.466H212.078V753.236Z" fill="url(#paint7_linear_1_3)"/>
<path d="M164.846 727.954L90.4778 742.933L92.2922 751.987L166.66 737.008L164.846 727.954Z" fill="url(#paint8_linear_1_3)"/>
<path d="M194.84 739.113C194.84 739.113 193.793 741.548 192.926 742.512C192.059 743.476 188.767 745.171 188.711 748.055C188.659 751.183 194.205 750.383 196.373 750.292C198.54 750.202 198.725 748.537 199.656 746.772C200.588 745.008 201.506 745.326 201.695 743.898C201.884 742.469 201.051 739.263 201.051 739.263L194.84 739.113Z" fill="#8E8582"/>
<path d="M243.009 754.875C243.009 754.875 246.013 758.085 249.044 758.787C252.074 759.488 254.233 760.366 254.233 762.186C254.233 764.007 245.382 765.104 241.901 763.228C236.703 760.422 236.158 761.24 235.596 759.863C235.034 758.486 236.351 754.837 236.321 754.398C236.278 753.86 243.009 754.875 243.009 754.875Z" fill="#8E8582"/>
<path d="M236.06 663.058C236.06 663.058 238.952 686.175 240.154 693.989C241.558 703.129 241.983 710.673 242.348 715.402C242.807 721.345 243.455 752.582 243.803 754.32C244.15 756.059 235.501 755.09 235.501 755.09C235.501 755.09 229.703 714.528 228.205 708.186C226.801 702.282 223.054 677.956 221.68 679.548C220.307 681.14 204.223 698.684 203.172 703.314C202.12 707.945 201.399 739.16 201.399 739.16C201.399 739.16 195.235 742.108 193.428 740.627C193.428 740.627 189.685 713.229 190.424 704.528C190.703 701.214 200.489 673.368 206.262 658.755C209.305 651.03 236.06 663.058 236.06 663.058Z" fill="#E6D8D1"/>
<path d="M227.423 607.598C227.423 607.598 235.789 609.44 236.772 610.335C237.841 611.286 239.635 620.516 239.721 623.085C239.807 625.654 238.549 636.352 237.424 640.328C236.3 644.305 236.291 665.132 236.738 668.415C236.738 668.415 219.877 671.509 203.301 669.143C203.301 669.143 206.387 651.095 205.79 645.617C205.022 638.603 203.163 622.444 203.163 622.444C203.163 622.444 205.511 611.604 207.026 610.369C208.541 609.134 218.822 607.215 218.822 607.215L227.423 607.598Z" fill="#344B90"/>
<path d="M216.07 607.757C216.07 607.757 220.684 617.397 227.659 616.708C234.634 616.02 230.664 609.281 230.02 608.205C230.02 608.205 225.874 605.464 216.07 607.757Z" fill="#DBA585"/>
<path d="M249.761 611.398C249.761 611.398 239.978 621.85 239.601 625.766C239.326 628.559 237.721 617.336 237.721 617.336L249.761 611.398Z" fill="#344B90"/>
<path d="M178.148 692.225C174.59 684.596 173.368 676.081 174.638 667.756C175.908 659.431 179.612 651.671 185.281 645.456C190.95 639.242 198.331 634.853 206.489 632.844C214.647 630.836 223.215 631.298 231.111 634.172C239.007 637.046 245.876 642.203 250.848 648.991C255.82 655.779 258.673 663.892 259.045 672.306C259.417 680.719 257.292 689.054 252.938 696.256C248.585 703.459 242.199 709.205 234.587 712.768C224.385 717.545 212.709 718.064 202.125 714.211C191.541 710.359 182.917 702.451 178.148 692.225Z" fill="#E7B96B"/>
<path d="M236.866 711.628L200.966 634.601C211.037 630.568 222.265 630.551 232.348 634.552C242.431 638.553 250.607 646.269 255.197 656.119C259.788 665.968 260.447 677.205 257.039 687.526C253.63 697.848 246.413 706.471 236.866 711.628Z" fill="#E7B96B"/>
<path d="M178.148 692.225C174.144 683.631 173.115 673.944 175.224 664.697C177.334 655.451 182.461 647.175 189.793 641.18L224.676 716.009C215.387 717.803 205.765 716.437 197.337 712.129C188.909 707.821 182.156 700.816 178.148 692.225Z" fill="#E7B96B"/>
<path d="M187.372 687.896C184.67 682.098 183.744 675.627 184.711 669.301C185.677 662.976 188.493 657.079 192.802 652.358C197.11 647.636 202.719 644.302 208.918 642.775C215.117 641.249 221.628 641.599 227.628 643.782C233.628 645.965 238.848 649.883 242.628 655.04C246.408 660.197 248.578 666.361 248.863 672.754C249.148 679.147 247.537 685.481 244.232 690.956C240.927 696.431 236.077 700.8 230.295 703.512C226.454 705.314 222.297 706.34 218.06 706.53C213.824 706.721 209.592 706.072 205.605 704.622C201.619 703.171 197.957 700.948 194.828 698.078C191.7 695.208 189.166 691.748 187.372 687.896Z" fill="#E09637"/>
<path d="M212.864 687.904C213.367 688.097 213.892 688.228 214.426 688.296C215.138 688.392 215.855 688.435 216.572 688.425C217.416 688.413 218.257 688.333 219.088 688.184C219.978 688.032 220.851 687.789 221.693 687.461L217.56 678.597L216.667 678.808C215.108 679.134 213.531 679.371 211.945 679.518C210.635 679.649 209.313 679.582 208.022 679.32C206.884 679.071 205.819 678.562 204.91 677.831C203.903 676.968 203.106 675.887 202.579 674.668C201.92 673.348 201.579 671.892 201.584 670.416C201.62 669.113 201.961 667.836 202.579 666.69C203.237 665.484 204.11 664.411 205.155 663.523C206.313 662.533 207.592 661.696 208.962 661.031L206.867 656.534L209.087 655.493L211.233 660.076C213.297 659.269 215.465 658.758 217.671 658.557C219.809 658.361 221.965 658.506 224.058 658.987L223.796 664.116C223.189 663.886 222.556 663.729 221.912 663.647C221.041 663.52 220.161 663.461 219.281 663.471C218.247 663.476 217.216 663.558 216.195 663.716C215.09 663.881 214.002 664.146 212.945 664.508L217.079 673.373C217.276 673.347 217.478 673.312 217.684 673.269C217.89 673.226 218.088 673.192 218.285 673.17C219.787 672.889 221.303 672.692 222.826 672.581C224.016 672.482 225.214 672.583 226.372 672.878C227.37 673.14 228.297 673.624 229.085 674.293C229.945 675.067 230.629 676.019 231.089 677.082C231.71 678.35 232.056 679.736 232.102 681.148C232.126 682.442 231.873 683.726 231.359 684.914C230.822 686.14 230.062 687.256 229.119 688.206C228.075 689.253 226.892 690.151 225.603 690.874L227.617 695.177L225.397 696.214L223.38 691.911C221.579 692.641 219.674 693.076 217.736 693.202C215.994 693.314 214.246 693.203 212.533 692.87L212.864 687.904ZM226.44 680.185C226.231 679.65 225.89 679.176 225.45 678.809C225.009 678.441 224.483 678.19 223.921 678.08C222.401 677.887 220.859 677.957 219.362 678.287L223.294 686.721C224.991 685.823 226.083 684.819 226.569 683.709C226.809 683.148 226.921 682.541 226.897 681.931C226.873 681.322 226.714 680.725 226.432 680.185H226.44ZM207.468 671.755C207.705 672.333 208.091 672.838 208.588 673.216C209.085 673.595 209.673 673.833 210.293 673.906C211.959 674.068 213.64 673.991 215.285 673.678L211.331 665.201C209.523 666.084 208.281 667.088 207.606 668.213C207.277 668.74 207.091 669.344 207.067 669.966C207.043 670.587 207.181 671.203 207.468 671.755Z" fill="#EAC483"/>
<g style="mix-blend-mode:soft-light">
<path d="M242.743 707.79C250.315 701.854 255.656 693.52 257.894 684.149C260.132 674.777 259.135 664.922 255.066 656.192C250.996 647.462 244.095 640.373 235.488 636.082C226.881 631.792 217.078 630.554 207.679 632.57L242.743 707.79Z" fill="#F7F7F7"/>
</g>
<g style="mix-blend-mode:soft-light">
<path d="M224.676 716.009L189.793 641.18C192.502 638.971 195.473 637.105 198.639 635.625C199.412 635.264 200.189 634.924 200.966 634.618L236.866 711.645C236.128 712.044 235.374 712.424 234.604 712.786C231.44 714.266 228.105 715.348 224.676 716.009Z" fill="#F7F7F7"/>
</g>
<path d="M196.647 676.208C196.478 675.797 196.377 675.361 196.347 674.917C196.347 674.917 196.471 674.126 196.523 673.553C196.531 673.41 196.531 673.266 196.523 673.123C196.417 672.321 196.44 671.508 196.592 670.713C196.836 669.672 198.085 666.079 198.085 666.079L201.326 666.604L204.15 666.255C204.15 666.255 206.181 672.435 206.065 673.433C206.053 673.527 206.035 673.62 206.013 673.713C205.833 674.552 205.344 675.094 205.202 675.52C205.146 675.679 204.502 677.198 204.03 677.34C203.773 677.435 203.496 677.463 203.225 677.422C202.954 677.381 202.698 677.271 202.481 677.104C202.481 677.104 201.193 677.431 200.369 677.043C200.014 677.136 199.643 677.145 199.284 677.07C198.926 676.996 198.589 676.839 198.3 676.613C198.3 676.613 197.077 676.824 196.647 676.208Z" fill="#DCA787"/>
<path d="M211.628 610.189C212.722 610.619 213.851 613.313 212.915 618.533C211.92 624.127 210.044 626.506 209.284 627.81C208.524 629.114 203.829 637.802 203.829 639.098C203.829 642.467 203.648 651.357 203.747 652.037C203.914 653.204 204.502 666.612 204.502 666.612L197.39 668.247C197.39 668.247 196.171 653.122 195.596 648.547C195.099 644.608 195.089 640.621 195.566 636.679C196.235 631.855 199.858 621.218 200.33 620.374C200.802 619.531 204.391 607.28 211.628 610.189Z" fill="#344B90"/>
<path d="M224.35 579.907C224.35 579.907 232.548 581.198 231.299 594.065C230.05 606.931 222.818 605.868 222.333 605.855C221.848 605.842 215.07 606.088 214.538 590.39C214.538 590.39 214.31 578.78 224.35 579.907Z" fill="#DBA585"/>
<path d="M228.175 599.616C228.175 599.616 228.084 606.441 228.604 607.585C229.123 608.73 222.071 611.841 217.633 607.74C217.633 607.74 218.337 601.027 218.062 598.992C217.787 596.956 228.175 599.616 228.175 599.616Z" fill="#DBA585"/>
<path d="M231.428 590.433C231.428 590.433 232.321 589.469 232.651 590.433C232.982 591.397 231.428 595.747 231.364 595.949C231.364 595.949 231.201 596.328 230.986 596.122C230.771 595.915 231.428 590.433 231.428 590.433Z" fill="#DBA585"/>
<path d="M214.761 590.278C214.761 590.278 213.903 589.297 213.533 590.278C213.164 591.259 214.641 595.614 214.705 595.816C214.705 595.816 214.864 596.199 215.083 595.997C215.302 595.794 214.761 590.278 214.761 590.278Z" fill="#DBA585"/>
<path d="M231.424 592.404L230.248 593.974C230.248 593.974 230.282 590.532 230.093 589.985C229.904 589.439 229.617 587.795 229.458 587.403C229.299 587.012 222.783 589.4 216.341 587.967C216.341 587.967 216.607 590.45 216.023 590.669C215.439 590.889 215.727 594.71 215.727 594.71L214.761 593.617C214.761 593.617 213.284 583.72 213.649 582.691C214.014 581.663 215.177 575.462 227.651 579.141C227.651 579.141 231.54 578.315 232.317 581.009C233.094 583.702 231.424 592.404 231.424 592.404Z" fill="#454545"/>
<path d="M218.015 603.51C218.015 603.51 219.865 605.881 222.783 605.881C224.706 605.881 226.217 605.21 228.136 603.338C228.136 603.338 227.166 607.026 222.796 607.353C222.796 607.353 219.461 607.564 218.015 603.51Z" fill="#997761"/>
<path d="M260.796 580.75C260.796 580.75 259.204 577.549 258.976 577.054C258.749 576.559 258.976 575.049 259.405 573.345C259.835 571.641 261.174 569.528 261.461 569.429C261.654 569.315 261.869 569.244 262.091 569.222C262.313 569.2 262.538 569.226 262.749 569.3C263.239 569.451 263.682 569.725 264.037 570.096C264.336 570.05 264.643 570.08 264.927 570.185C265.212 570.289 265.465 570.465 265.664 570.694C265.972 570.671 266.279 570.741 266.548 570.894C266.816 571.047 267.033 571.277 267.17 571.555C267.17 571.555 268.14 571.46 268.458 572.209C268.338 572.899 268.281 573.599 268.286 574.3C268.359 574.885 267.642 577.992 266.496 580.867C266.479 580.871 264.483 583.216 260.796 580.75Z" fill="#DBA585"/>
<path d="M262.582 575.995C262.582 575.995 263.947 577.162 264.166 577.682C264.385 578.203 267.801 576.043 267.801 576.043C267.801 576.043 264.041 574.356 262.582 575.995Z" fill="#BD8A6D"/>
<path d="M260.796 580.751C260.796 580.751 260.921 583.1 260.461 584.326C260.002 585.553 264.11 586.616 264.101 586.508C264.093 586.401 266.737 580.208 266.737 580.208L260.796 580.751Z" fill="#DBA585"/>
<path d="M261.35 569.872C261.35 569.872 260.363 574.218 261.045 574.464C261.216 574.542 261.404 574.576 261.591 574.562C261.779 574.549 261.96 574.488 262.118 574.386L262.526 576.361C262.526 576.361 263.53 577.514 264.492 576.082C264.492 576.082 265.316 577.256 266.08 575.763C266.08 575.763 266.973 576.297 267.449 575.664C267.926 575.032 268.441 572.222 268.441 572.222C268.441 572.222 268.303 571.542 267.175 571.533C267.038 571.254 266.821 571.022 266.552 570.869C266.282 570.715 265.973 570.647 265.664 570.672C265.473 570.434 265.221 570.253 264.935 570.148C264.649 570.042 264.34 570.017 264.041 570.074C264.041 570.074 262.831 568.59 261.466 569.455C261.42 569.592 261.382 569.731 261.35 569.872Z" fill="#C99A7D"/>
<path d="M258.993 576.912C258.993 576.912 260.951 574.567 262.582 573.753C262.951 573.573 263.341 573.461 263.651 573.753C263.96 574.046 263.955 574.825 263.157 575.905C262.583 576.769 262.133 577.709 261.818 578.698C261.818 578.698 260.68 579.52 258.993 576.912Z" fill="#DBA585"/>
<path d="M260.097 600.55C262.11 596.737 266.608 581.973 266.608 581.973L260.504 580.613C260.504 580.613 257.161 588.032 255.551 593.174C254.988 595.004 254.299 596.792 253.491 598.527C253.263 598.923 242.76 606.703 241.601 607.28C240.442 607.856 236.077 609.311 233.965 611.411C231.853 613.511 232.836 616.433 232.836 616.433C237.193 622.19 245.455 614.871 245.455 614.871C245.455 614.871 257.276 605.894 260.097 600.55Z" fill="#344B90"/>
<path d="M340.316 627.04L357.382 636.443L374.521 609.405L353.793 602.185L340.316 627.04Z" fill="#2E3048"/>
<path d="M341.397 626.227L357.356 635.022L373.388 609.737L353.999 602.985L341.397 626.227Z" fill="#DCD0C8"/>
<path d="M335.551 621.498C335.551 621.498 338.521 620.073 339.843 619.346C341.165 618.619 344.501 617.577 344.771 617.336C345.041 617.095 354.716 616.497 355.3 615.989C355.884 615.482 356.459 617.177 353.948 617.711C351.437 618.244 347.939 619.608 347.763 620.59C347.587 621.571 350.338 621.803 350.617 622.612C350.896 623.421 350.54 623.24 350.145 623.412C349.75 623.585 346.857 621.979 345.582 622.436C344.307 622.892 342.367 622.263 341.393 622.595L335.676 624.531L335.551 621.498Z" fill="#DBA585"/>
<path d="M358.206 633.052C358.206 633.052 360.7 630.801 361.906 629.859C363.112 628.916 365.383 626.145 365.713 625.986C366.044 625.826 370.375 616.923 371.083 616.566C371.791 616.209 370.413 615.008 368.937 617.164C367.46 619.32 364.82 622.087 363.825 621.898C362.829 621.708 363.683 618.993 363.035 618.412C362.387 617.831 362.412 618.244 362.095 618.55C361.777 618.855 362.159 622.216 361.236 623.24C360.314 624.264 360.15 626.347 359.455 627.139C358.76 627.931 355.412 631.786 355.412 631.786L358.206 633.052Z" fill="#DBA585"/>
<path d="M304.466 753.404C304.466 753.404 303.93 757.16 303.861 757.728C303.792 758.296 297.852 757.393 297.852 757.393L297.371 752.922C297.371 752.922 303.728 752.874 304.466 753.404Z" fill="#454971"/>
<path d="M303.925 757.242C303.925 757.242 305.805 759.501 307.625 760.491C309.445 761.481 312.304 761.868 313.381 762.888C314.158 763.624 316.21 766.799 308.66 766.735C301.11 766.67 297.461 767.165 296.641 765.965C295.821 764.764 297.813 756.984 297.813 756.984C297.813 756.984 299.603 757.638 303.925 757.242Z" fill="#2E3048"/>
<path d="M347.012 753.404C347.012 753.404 346.471 757.16 346.406 757.728C346.342 758.296 340.397 757.393 340.397 757.393L339.921 752.939C339.921 752.939 346.269 752.874 347.012 753.404Z" fill="#454971"/>
<path d="M346.466 757.242C346.466 757.242 348.351 759.501 350.166 760.491C351.982 761.481 358.682 762.285 359.76 763.309C360.537 764.045 361.829 767.015 351.197 766.752C343.642 766.554 339.994 767.182 339.178 765.982C338.363 764.781 340.35 757.001 340.35 757.001C340.35 757.001 342.041 757.672 346.466 757.242Z" fill="#2E3048"/>
<path d="M309.385 656.883C309.385 656.883 303.805 665.769 304.234 673.799C304.664 681.828 302.213 690.603 301.376 698.994C300.44 708.349 296.615 730.498 296.478 735.502C296.341 740.507 297.07 756.485 297.07 756.485L304.724 756.661C304.724 756.661 311.162 717.932 312.819 713.99C314.476 710.049 322.739 681.876 323.018 678.704C323.297 675.533 309.385 656.883 309.385 656.883Z" fill="#2E3048"/>
<path d="M338.753 658.083C338.753 658.083 342.96 680.103 343.513 685.017C344.067 689.931 344.44 708.814 344.715 711.882C344.99 714.95 346.565 752.095 348.046 756.661H338.264C338.264 756.661 330.748 729.663 330.748 716.887C330.748 704.11 324.945 689.118 321.202 680.692C317.459 672.267 308.879 672.086 306.578 656.427C306.578 656.427 335.637 653.126 338.753 658.083Z" fill="#2E3048"/>
<path d="M318.717 582.166C318.717 582.166 326.203 579.365 329.658 585.079C333.113 590.794 332.778 602.236 329.005 603.643C325.232 605.051 319.562 604.315 317.626 600.735C315.691 597.154 313.926 591.999 313.995 588.556C314.064 585.114 316.729 583.165 318.717 582.166Z" fill="#DBA585"/>
<path d="M328.16 603.902C328.16 603.902 327.846 605.929 328.362 606.914C328.877 607.899 318.661 607.942 318.661 607.942C318.117 604.545 317.313 601.194 316.257 597.92C314.695 593.346 328.16 603.902 328.16 603.902Z" fill="#DBA585"/>
<path d="M316.266 597.933C316.266 597.933 316.974 599.099 319.854 598.647C322.734 598.196 326.241 594.344 327.443 593.914C328.645 593.484 328.658 592.782 328.658 592.782L329.409 593.884L330.697 593.966C330.697 593.966 329.529 590.523 331.289 589.133C333.049 587.743 329.465 578.014 320.232 581.25C320.232 581.25 313.141 583.208 313.403 587.253C313.665 591.298 314.682 595.919 316.266 597.933Z" fill="#3E4148"/>
<path d="M328.98 606.806C328.98 606.806 328.945 604.9 328.082 604.719C327.22 604.539 318.562 603.699 317.502 604.117V606.337C317.502 606.337 319.545 607.598 328.98 606.806Z" fill="#DCD0C8"/>
<path d="M328.469 591.332C328.306 590.656 326.585 588.72 325.928 590.794C325.271 592.868 326.924 595.657 327.842 595.42C328.761 595.183 328.877 593.053 328.469 591.332Z" fill="#DBA585"/>
<path d="M363.357 629.351C363.398 629.378 363.389 629.373 363.357 629.351Z" fill="#363957"/>
<path d="M303.093 678.063C303.093 678.063 307.681 679.419 315.515 680.288C323.348 681.157 342.912 679.974 343.037 679.044C343.161 678.115 338.826 644.507 339.075 642.777C339.324 641.047 339.453 634.876 339.453 634.876C339.552 636.567 341.269 643.483 343.342 647.231C344.089 648.59 346.6 652.855 347.814 651.882C353.673 647.192 362.752 629.506 363.327 629.359C362.842 629.149 359.034 627.389 358.489 627.208C358.021 627.053 353.793 631.541 351.231 634.325C350.085 635.565 349.274 636.477 349.274 636.477C348.535 634.807 345.84 624.295 344.981 620.654C343.093 612.448 343.385 612.108 343.385 612.108C337.654 610.387 328.958 606.832 328.958 606.832L317.48 606.363C317.48 606.363 306.951 608.691 302.805 610.567C302.41 610.748 302.406 619.987 301.328 622.41L304.762 629.682C304.762 629.682 306.75 644.089 307.162 650.497C307.376 653.41 303.093 678.063 303.093 678.063Z" fill="#363957"/>
<path d="M300.874 634.381C301.174 635.35 302.535 636.171 303.419 636.533C304.001 636.77 304.639 636.834 305.256 636.718L305.685 636.636L313.549 635.173C313.549 635.173 315.266 615.305 302.818 610.546C302.496 610.649 298.114 625.487 300.874 634.381Z" fill="#363957"/>
<path d="M303.419 636.529C304.001 636.765 304.639 636.83 305.256 636.714L305.685 636.632L304.913 626.481L303.419 636.529Z" fill="#2A2C41"/>
<path d="M349.274 636.451L350.235 640.531C350.235 640.531 351.278 636.438 351.231 634.312C350.085 635.552 349.274 636.451 349.274 636.451Z" fill="#2A2C41"/>
<path d="M316.571 582.842C316.571 582.842 306.758 581.706 316.403 598.144L316.571 582.842Z" fill="#3E4148"/>
<path d="M366.632 607.955L367.628 606.234L359.773 603.519L358.773 605.227L366.632 607.955Z" fill="#2E3048"/>
</g>
</g>
<defs>
<linearGradient id="paint0_linear_1_3" x1="637.788" y1="655.435" x2="637.788" y2="-29.7305" gradientUnits="userSpaceOnUse">
<stop stop-color="#975AE7"/>
<stop offset="0.44" stop-color="#662D91"/>
<stop offset="0.97" stop-color="#1B1464"/>
</linearGradient>
<radialGradient id="paint1_radial_1_3" cx="0" cy="0" r="1" gradientUnits="userSpaceOnUse" gradientTransform="translate(235.411 391.543) scale(194.305 194.797)">
<stop offset="0.16" stop-color="#9EC0E5"/>
<stop offset="0.58" stop-color="#71ACFB"/>
<stop offset="1" stop-color="#6F81F0"/>
</radialGradient>
<radialGradient id="paint2_radial_1_3" cx="0" cy="0" r="1" gradientUnits="userSpaceOnUse" gradientTransform="translate(533.37 561.827) scale(58.4287 58.5769)">
<stop offset="0.16" stop-color="#9EC0E5"/>
<stop offset="0.58" stop-color="#71ACFB"/>
<stop offset="1" stop-color="#6F81F0"/>
</radialGradient>
<radialGradient id="paint3_radial_1_3" cx="0" cy="0" r="1" gradientUnits="userSpaceOnUse" gradientTransform="translate(533.37 561.827) scale(58.4325 58.5809)">
<stop offset="0.16" stop-color="#9EC0E5"/>
<stop offset="0.58" stop-color="#71ACFB"/>
<stop offset="1" stop-color="#6F81F0"/>
</radialGradient>
<radialGradient id="paint4_radial_1_3" cx="0" cy="0" r="1" gradientUnits="userSpaceOnUse" gradientTransform="translate(533.37 561.827) scale(58.4325 58.581)">
<stop offset="0.16" stop-color="#9EC0E5"/>
<stop offset="0.58" stop-color="#71ACFB"/>
<stop offset="1" stop-color="#6F81F0"/>
</radialGradient>
<radialGradient id="paint5_radial_1_3" cx="0" cy="0" r="1" gradientUnits="userSpaceOnUse" gradientTransform="translate(519.207 386.469) scale(46.2137 46.3309)">
<stop offset="0.16" stop-color="#9EC0E5"/>
<stop offset="0.58" stop-color="#71ACFB"/>
<stop offset="1" stop-color="#6F81F0"/>
</radialGradient>
<linearGradient id="paint6_linear_1_3" x1="130.215" y1="748.997" x2="206.069" y2="748.997" gradientUnits="userSpaceOnUse">
<stop stop-color="#E59148"/>
<stop offset="1" stop-color="#F2D05F"/>
</linearGradient>
<linearGradient id="paint7_linear_1_3" x1="136.225" y1="757.849" x2="212.078" y2="757.849" gradientUnits="userSpaceOnUse">
<stop stop-color="#DB843A"/>
<stop offset="1" stop-color="#E4C04C"/>
</linearGradient>
<linearGradient id="paint8_linear_1_3" x1="90.4973" y1="739.949" x2="166.677" y2="739.949" gradientUnits="userSpaceOnUse">
<stop stop-color="#E79D5A"/>
<stop offset="1" stop-color="#F2D05F"/>
</linearGradient>
<clipPath id="clip0_1_3">
<rect width="700" height="800" fill="white" transform="translate(-11)"/>
</clipPath>
<clipPath id="clip1_1_3">
<rect width="508" height="457" fill="white" transform="translate(85 311)"/>
</clipPath>
</defs>
</svg>
