<svg width="18" height="18" viewBox="0 0 18 18" fill="none" xmlns="http://www.w3.org/2000/svg">
<path d="M9 13.5L9.80438 12.7164L6.66563 9.5625L13.5 9.5625L13.5 8.4375L6.66563 8.4375L9.80438 5.30269L9 4.5L4.5 9L9 13.5Z" fill="#250C77"/>
<path d="M9 1.125C10.5575 1.125 12.0801 1.58686 13.3751 2.45217C14.6702 3.31749 15.6795 4.5474 16.2755 5.98636C16.8716 7.42533 17.0275 9.00873 16.7237 10.5363C16.4198 12.0639 15.6698 13.4671 14.5685 14.5685C13.4671 15.6698 12.0639 16.4198 10.5363 16.7237C9.00873 17.0275 7.42533 16.8716 5.98636 16.2755C4.5474 15.6795 3.31749 14.6701 2.45217 13.3751C1.58686 12.0801 1.125 10.5575 1.125 8.99999C1.12738 6.91215 1.95783 4.91049 3.43416 3.43416C4.9105 1.95783 6.91215 1.12738 9 1.125ZM9 15.75C10.335 15.75 11.6401 15.3541 12.7501 14.6124C13.8601 13.8707 14.7253 12.8165 15.2362 11.5831C15.7471 10.3497 15.8807 8.99251 15.6203 7.68314C15.3598 6.37377 14.717 5.17103 13.773 4.22703C12.829 3.28302 11.6262 2.64015 10.3169 2.3797C9.00749 2.11925 7.65029 2.25292 6.41688 2.76381C5.18348 3.2747 4.12928 4.13986 3.38758 5.2499C2.64588 6.35993 2.25 7.66497 2.25 8.99999C2.25208 10.7896 2.96391 12.5052 4.22933 13.7707C5.49475 15.0361 7.21042 15.7479 9 15.75Z" fill="#250C77"/>
</svg>
