<svg width="336" height="46" viewBox="0 0 336 46" fill="none" xmlns="http://www.w3.org/2000/svg">
<path d="M8.35052 22.0975C8.57426 18.5327 10.0891 15.1714 12.6116 12.6423C15.1342 10.1132 18.4917 8.58961 22.0563 8.35636L25.0998 4.80983L22.1197 1.33328C16.6918 1.5541 11.5444 3.80353 7.69537 7.63672C3.84638 11.4699 1.57608 16.6078 1.33344 22.0342L4.81031 19.061L8.35052 22.0975Z" fill="#250C77"/>
<path d="M23.9053 8.34938C27.4705 8.5731 30.8321 10.0878 33.3614 12.6101C35.8907 15.1324 37.4145 18.4896 37.6478 22.0539L41.1946 25.0971L44.6715 22.1172C44.4507 16.6898 42.201 11.5429 38.3675 7.6943C34.5339 3.84568 29.3956 1.57559 23.9686 1.33297L26.9421 4.80951L23.9053 8.34938Z" fill="#250C77"/>
<path d="M37.6536 23.901C37.4299 27.4659 35.9151 30.8272 33.3925 33.3562C30.87 35.8853 27.5124 37.4089 23.9478 37.6422L20.9043 41.1887L23.8845 44.6653C29.3124 44.4445 34.4598 42.195 38.3088 38.3618C42.1578 34.5287 44.4281 29.3908 44.6707 23.9644L41.1938 26.9376L37.6536 23.901Z" fill="#250C77"/>
<path d="M22.0997 37.6486C18.5345 37.4249 15.1729 35.9103 12.6435 33.3879C10.1142 30.8656 8.59045 27.5084 8.35719 23.9441L4.81031 20.9009L1.33344 23.8808C1.55428 29.3082 3.80392 34.4551 7.63747 38.3037C11.471 42.1523 16.6094 44.4224 22.0363 44.665L19.0562 41.1885L22.0997 37.6486Z" fill="#250C77"/>
<path d="M31.0025 18.4093H27.7473C27.3791 18.4093 27.0806 18.7078 27.0806 19.076V31.2572C27.0806 31.6254 27.3791 31.9238 27.7473 31.9238H31.0025C31.3707 31.9238 31.6692 31.6254 31.6692 31.2572V19.076C31.6692 18.7078 31.3707 18.4093 31.0025 18.4093Z" fill="#250C77"/>
<path d="M18.2569 22.3607H15.0017C14.6335 22.3607 14.335 22.6592 14.335 23.0274V31.2571C14.335 31.6252 14.6335 31.9237 15.0017 31.9237H18.2569C18.6251 31.9237 18.9236 31.6252 18.9236 31.2571V23.0274C18.9236 22.6592 18.6251 22.3607 18.2569 22.3607Z" fill="#250C77"/>
<path d="M24.785 14.0744H21.2148C21.0798 14.0748 20.9505 14.1287 20.8552 14.2243C20.7599 14.3199 20.7064 14.4494 20.7064 14.5844V31.4171C20.7064 31.552 20.7599 31.6815 20.8552 31.7771C20.9505 31.8727 21.0798 31.9266 21.2148 31.9271H24.785C24.9185 31.9244 25.0457 31.8696 25.1392 31.7742C25.2327 31.6788 25.2851 31.5506 25.285 31.4171V14.5844C25.2851 14.4508 25.2327 14.3226 25.1392 14.2272C25.0457 14.1319 24.9185 14.077 24.785 14.0744ZM24.02 30.3938C24.02 30.4614 23.9931 30.5263 23.9453 30.5741C23.8974 30.6219 23.8326 30.6488 23.7649 30.6488H22.2348C22.1672 30.6488 22.1023 30.6219 22.0545 30.5741C22.0067 30.5263 21.9798 30.4614 21.9798 30.3938V15.6043C21.9798 15.5367 22.0067 15.4718 22.0545 15.424C22.1023 15.3762 22.1672 15.3493 22.2348 15.3493H23.7649C23.8326 15.3493 23.8974 15.3762 23.9453 15.424C23.9931 15.4718 24.02 15.5367 24.02 15.6043V30.3938Z" fill="#250C77"/>
<path d="M57.8079 36.2823C57.5993 36.4399 57.3399 36.5147 57.0795 36.4923H53.591C53.2576 36.4923 53.0226 36.4223 52.8826 36.2823C52.7426 36.1423 52.6709 35.904 52.6709 35.5724V10.5733C52.6709 10.24 52.7409 10.005 52.8826 9.86496C53.0243 9.72497 53.2593 9.66664 53.591 9.66664H69.1169C69.3745 9.64377 69.6315 9.71676 69.8386 9.87163C69.9919 10.0116 70.0686 10.2483 70.0686 10.5799V13.7232C70.0686 14.0565 69.9986 14.2915 69.8586 14.4315C69.7186 14.5715 69.4686 14.6431 69.1102 14.6431H58.5362C58.4675 14.6285 58.3962 14.6314 58.3289 14.6513C58.2615 14.6713 58.2002 14.7078 58.1505 14.7574C58.1009 14.8071 58.0644 14.8684 58.0444 14.9358C58.0245 15.0031 58.0216 15.0744 58.0362 15.1431V20.7779C58.0216 20.8466 58.0245 20.9179 58.0444 20.9852C58.0644 21.0526 58.1009 21.1139 58.1505 21.1636C58.2002 21.2132 58.2615 21.2497 58.3289 21.2697C58.3962 21.2896 58.4675 21.2925 58.5362 21.2779H67.8135C68.1718 21.2779 68.4202 21.3479 68.5602 21.4895C68.7002 21.6312 68.7719 21.8779 68.7719 22.2362V25.3327C68.7719 25.6661 68.6952 25.9027 68.5418 26.0427C68.3333 26.2002 68.0739 26.275 67.8135 26.2527H58.5362C58.4675 26.2381 58.3962 26.2409 58.3289 26.2609C58.2615 26.2809 58.2002 26.3173 58.1505 26.367C58.1009 26.4167 58.0644 26.478 58.0444 26.5453C58.0245 26.6127 58.0216 26.684 58.0362 26.7527V35.569C58.0373 35.9035 57.9612 36.1412 57.8079 36.2823Z" fill="#250C77"/>
<path d="M79.5803 36.2822C79.3718 36.4397 79.1123 36.5145 78.852 36.4922H75.3634C75.0301 36.4922 74.7934 36.4222 74.6534 36.2822C74.5134 36.1422 74.4434 35.9055 74.4434 35.5722V10.5731C74.4434 10.2398 74.5134 10.0048 74.6534 9.8648C74.7934 9.7248 75.0301 9.66647 75.3634 9.66647H78.852C79.1126 9.64381 79.3724 9.71929 79.5803 9.87813C79.7337 10.0181 79.8103 10.2548 79.8103 10.5864V35.5855C79.8103 35.9089 79.7337 36.1411 79.5803 36.2822Z" fill="#250C77"/>
<path d="M103.519 9.87088C103.659 9.72922 103.896 9.65922 104.229 9.65922H107.718C107.979 9.63656 108.238 9.71205 108.446 9.87088C108.6 10.0109 108.676 10.2475 108.676 10.5792V35.5783C108.699 35.9359 108.626 36.293 108.465 36.6132C108.396 36.7261 108.297 36.8179 108.179 36.8787C108.062 36.9395 107.93 36.967 107.798 36.9582C107.533 36.9459 107.279 36.8522 107.07 36.6899C106.687 36.3997 106.328 36.0793 105.996 35.7316L91.387 20.2772V35.5716C91.387 35.9049 91.3103 36.1416 91.157 36.2816C90.9485 36.4391 90.689 36.5139 90.4286 36.4916H86.9401C86.6067 36.4916 86.37 36.4216 86.23 36.2816C86.09 36.1416 86.02 35.9049 86.02 35.5716V10.5725C86.02 9.65255 86.3011 9.19257 86.8634 9.19257C87.1333 9.20661 87.393 9.29994 87.6101 9.46089C88.0028 9.74658 88.3688 10.0673 88.7035 10.4192L103.309 25.867V10.5792C103.309 10.2475 103.379 10.0109 103.519 9.87088Z" fill="#250C77"/>
<path d="M120.367 31.394C120.475 31.481 120.612 31.5222 120.75 31.509H131.292C131.626 31.509 131.861 31.579 132.002 31.7207C132.144 31.8623 132.212 32.0973 132.212 32.429V35.5722C132.212 35.9055 132.142 36.1422 132.002 36.2822C131.862 36.4222 131.626 36.4944 131.292 36.4988H115.805C115.471 36.4988 115.236 36.4288 115.096 36.2888C114.956 36.1488 114.885 35.9105 114.885 35.5789V10.5798C114.885 10.2464 114.955 10.0115 115.096 9.87146C115.238 9.73147 115.473 9.66647 115.805 9.66647H119.293C119.554 9.64381 119.814 9.71929 120.022 9.87813C120.175 10.0181 120.252 10.2548 120.252 10.5864V31.0107C120.239 31.1486 120.28 31.2862 120.367 31.394Z" fill="#250C77"/>
<path d="M140.765 35.3036C140.535 35.7881 140.305 36.1075 140.074 36.2619C139.844 36.4164 139.499 36.4953 139.039 36.4986H135.628C135.064 36.4986 134.784 36.3203 134.784 35.962C134.811 35.7355 134.876 35.5151 134.976 35.3103L146.898 10.9779C147.255 10.2112 147.549 9.70013 147.78 9.44458C147.872 9.3288 147.989 9.23453 148.121 9.16833C148.253 9.10213 148.399 9.06559 148.547 9.06126C148.69 9.0637 148.83 9.09965 148.956 9.16623C149.083 9.23281 149.192 9.32815 149.275 9.44458C149.614 9.92867 149.909 10.4418 150.157 10.9779L162.157 35.3186C162.257 35.5238 162.322 35.744 162.349 35.9703C162.346 36.3225 162.066 36.4986 161.511 36.4986H157.862C157.514 36.5209 157.166 36.4409 156.862 36.2686C156.632 36.1153 156.402 35.7958 156.172 35.3103L148.428 18.9776L140.765 35.3036Z" fill="#250C77"/>
<path d="M178.174 10.6561C178.345 10.3423 178.581 10.0681 178.864 9.8511C179.07 9.72333 179.403 9.65944 179.865 9.65944H183.66C184.144 9.65944 184.387 9.81277 184.388 10.1194C184.38 10.3253 184.313 10.5246 184.196 10.6944L174.728 26.4872V35.5718C174.728 35.9052 174.651 36.1418 174.498 36.2818C174.289 36.4393 174.03 36.5141 173.769 36.4918H170.281C169.947 36.4918 169.712 36.4218 169.572 36.2818C169.432 36.1418 169.361 35.9035 169.361 35.5718V26.6788L159.777 10.6944C159.661 10.5242 159.594 10.3252 159.585 10.1194C159.585 9.81277 159.841 9.65944 160.352 9.65944H164.3C164.637 9.63839 164.974 9.70439 165.279 9.8511C165.572 10.063 165.814 10.3381 165.987 10.6561L172.044 21.3123L178.174 10.6561Z" fill="#250C77"/>
<path d="M197.75 29.3055C197.842 29.2237 197.96 29.1761 198.083 29.1705C198.287 29.1705 198.517 29.2855 198.773 29.5155C199.742 30.2809 200.821 30.8951 201.974 31.3371C203.104 31.7765 204.307 32.0025 205.52 32.0037C207.027 32.0037 208.19 31.726 209.009 31.1704C209.828 30.6149 210.237 29.8677 210.236 28.9288C210.26 28.3842 210.082 27.8498 209.736 27.4289C209.402 27.0456 208.859 26.7006 208.106 26.3939C207.049 25.9915 205.967 25.6575 204.867 25.394C203 24.934 201.46 24.3846 200.247 23.7457C199.111 23.1763 198.145 22.3168 197.448 21.2541C196.797 20.2319 196.472 18.9542 196.472 17.4209C196.472 15.7088 196.887 14.2333 197.717 12.9944C198.57 11.7373 199.768 10.7534 201.167 10.1612C202.637 9.50898 204.304 9.18288 206.167 9.18288C209.474 9.15054 212.688 10.2761 215.253 12.3644C215.533 12.5694 215.674 12.7994 215.674 13.0544C215.657 13.3063 215.563 13.5469 215.406 13.7444L213.796 16.2743C213.59 16.6076 213.373 16.7743 213.144 16.7743C212.889 16.7435 212.648 16.6366 212.454 16.4676C211.489 15.7779 210.446 15.2039 209.347 14.7577C208.323 14.3489 207.23 14.1407 206.127 14.1444C204.874 14.1444 203.883 14.4127 203.155 14.9493C202.809 15.1885 202.529 15.5099 202.338 15.8846C202.147 16.2594 202.053 16.6756 202.064 17.0959C202.04 17.6684 202.232 18.2289 202.6 18.6675C203.042 19.1324 203.586 19.487 204.19 19.7025C205.174 20.0711 206.179 20.3783 207.201 20.6225C209.167 21.108 210.778 21.6897 212.034 22.3674C213.29 23.0452 214.229 23.8885 214.851 24.8973C215.478 25.9062 215.791 27.1389 215.791 28.5955C215.791 30.3066 215.357 31.7887 214.488 33.042C213.619 34.2953 212.405 35.2603 210.847 35.9369C209.292 36.6136 207.503 36.9519 205.48 36.9519C203.72 36.9643 201.97 36.6659 200.313 36.0702C198.766 35.5176 197.326 34.7005 196.058 33.6553C195.7 33.3753 195.521 33.1187 195.521 32.8887C195.521 32.7354 195.623 32.4937 195.828 32.1604L197.438 29.6688C197.522 29.5318 197.627 29.4091 197.75 29.3055Z" fill="#250C77"/>
<path d="M239.682 14.4314C239.542 14.5731 239.306 14.6431 238.974 14.6431H232.38C232.312 14.6285 232.24 14.6313 232.173 14.6513C232.106 14.6713 232.044 14.7077 231.995 14.7574C231.945 14.8071 231.909 14.8684 231.889 14.9357C231.869 15.0031 231.866 15.0743 231.88 15.1431V35.5723C231.88 35.9056 231.804 36.1423 231.65 36.2823C231.442 36.4398 231.182 36.5146 230.922 36.4923H227.433C227.1 36.4923 226.863 36.4223 226.723 36.2823C226.583 36.1423 226.513 35.9056 226.513 35.5723V15.1414C226.52 15.0715 226.512 15.001 226.488 14.9347C226.465 14.8685 226.428 14.8082 226.378 14.7581C226.262 14.6733 226.12 14.6325 225.977 14.6431H219.383C219.05 14.6431 218.813 14.5731 218.673 14.4314C218.533 14.2898 218.463 14.0548 218.463 13.7231V10.5799C218.463 10.2466 218.533 10.0116 218.673 9.87159C218.813 9.7316 219.05 9.65993 219.383 9.65993H238.972C239.306 9.65993 239.541 9.72993 239.681 9.87159C239.821 10.0133 239.893 10.2482 239.893 10.5799V13.7231C239.901 14.0548 239.829 14.2914 239.682 14.4314Z" fill="#250C77"/>
<path d="M244.425 35.3036C244.195 35.7881 243.965 36.1075 243.735 36.2619C243.505 36.4164 243.16 36.4953 242.7 36.4986H239.288C238.724 36.4986 238.444 36.3203 238.444 35.962C238.471 35.7355 238.536 35.5151 238.636 35.3103L250.558 10.9779C250.915 10.2112 251.209 9.70013 251.44 9.44458C251.532 9.3288 251.649 9.23453 251.781 9.16833C251.914 9.10213 252.059 9.06559 252.207 9.06126C252.35 9.0637 252.49 9.09965 252.617 9.16623C252.743 9.23281 252.852 9.32815 252.935 9.44458C253.274 9.92867 253.569 10.4418 253.817 10.9779L265.818 35.3186C265.917 35.5238 265.982 35.744 266.009 35.9703C266.009 36.3281 265.728 36.5069 265.166 36.5069H261.517C261.169 36.5292 260.821 36.4493 260.517 36.2769C260.287 36.1236 260.057 35.8042 259.827 35.3186L252.083 18.9859L244.425 35.3036Z" fill="#250C77"/>
<path d="M274.135 36.2819C273.926 36.4394 273.667 36.5142 273.406 36.4919H269.918C269.584 36.4919 269.348 36.4219 269.208 36.2819C269.068 36.1419 268.998 35.9053 268.998 35.572V10.5729C268.998 10.2395 269.068 10.0046 269.208 9.86456C269.348 9.72456 269.584 9.66623 269.918 9.66623H273.406C273.667 9.64357 273.927 9.71906 274.135 9.87789C274.288 10.0179 274.365 10.2545 274.365 10.5862V35.5853C274.365 35.9086 274.288 36.1408 274.135 36.2819ZM285.135 9.85122C285.459 9.70395 285.815 9.63816 286.17 9.65956H290.234C290.744 9.65956 291.001 9.81289 291.001 10.1195C290.983 10.3372 290.888 10.5413 290.732 10.6945L281.148 22.7691L291.077 35.4186C291.223 35.5935 291.316 35.8062 291.346 36.0319C291.346 36.3386 291.077 36.4919 290.541 36.4919H286.324C285.962 36.5115 285.6 36.4459 285.269 36.3003C284.954 36.1055 284.686 35.8437 284.483 35.5336L275.518 23.7657C275.321 23.5404 275.2 23.2587 275.173 22.9607C275.173 22.7308 275.3 22.4491 275.556 22.1174L284.373 10.6562C284.567 10.3359 284.827 10.0613 285.137 9.85122H285.135Z" fill="#250C77"/>
<path d="M311.627 31.7202C311.78 31.8602 311.857 32.0968 311.857 32.4285V35.5717C311.857 35.905 311.78 36.1417 311.627 36.2817C311.418 36.4389 311.159 36.5137 310.898 36.4917H295.487C295.154 36.4917 294.917 36.4217 294.777 36.2817C294.637 36.1417 294.567 35.905 294.567 35.5717V10.5726C294.567 10.2393 294.637 10.0043 294.777 9.86431C294.917 9.72431 295.154 9.65265 295.487 9.65265H310.853C311.114 9.62999 311.374 9.70547 311.582 9.86431C311.735 10.0043 311.812 10.241 311.812 10.5726V13.7225C311.812 14.0558 311.735 14.2908 311.582 14.4308C311.374 14.5896 311.114 14.6651 310.853 14.6425H300.426C300.357 14.6274 300.286 14.6299 300.218 14.6497C300.151 14.6695 300.089 14.706 300.039 14.7558C299.99 14.8056 299.953 14.8671 299.933 14.9346C299.913 15.0022 299.911 15.0737 299.926 15.1424V20.0106C299.911 20.0794 299.913 20.1508 299.933 20.2184C299.953 20.286 299.99 20.3475 300.039 20.3973C300.089 20.447 300.151 20.4835 300.218 20.5033C300.286 20.5231 300.357 20.5256 300.426 20.5106H309.548C309.679 20.4889 309.813 20.4988 309.939 20.5393C310.065 20.5798 310.18 20.6498 310.274 20.7434C310.367 20.8371 310.437 20.9518 310.478 21.078C310.518 21.2042 310.528 21.3382 310.507 21.4689V24.5738C310.507 24.9071 310.43 25.1438 310.277 25.2837C310.068 25.4417 309.809 25.5165 309.548 25.4937H300.426C300.29 25.4815 300.155 25.5156 300.041 25.5904C299.995 25.6458 299.962 25.7102 299.942 25.7793C299.923 25.8485 299.918 25.9209 299.928 25.9921V31.0135C299.913 31.0823 299.915 31.1538 299.935 31.2213C299.955 31.2889 299.991 31.3504 300.041 31.4002C300.091 31.45 300.152 31.4865 300.22 31.5063C300.287 31.5261 300.359 31.5286 300.428 31.5135H310.893C311.155 31.4885 311.417 31.5622 311.627 31.7202Z" fill="#250C77"/>
<path d="M316.627 29.3053C316.717 29.2252 316.831 29.1776 316.952 29.1703C317.157 29.1703 317.387 29.2853 317.642 29.5153C318.614 30.2794 319.696 30.8919 320.852 31.3319C321.982 31.7715 323.184 31.9975 324.397 31.9985C325.906 31.9985 327.069 31.7208 327.886 31.1652C328.268 30.9313 328.583 30.6012 328.798 30.2079C329.013 29.8147 329.122 29.3719 329.112 28.9237C329.137 28.379 328.959 27.8446 328.612 27.4237C328.279 27.0404 327.736 26.6954 326.984 26.3887C325.926 25.9864 324.844 25.6524 323.744 25.3888C321.878 24.9288 320.339 24.3794 319.125 23.7405C317.989 23.1716 317.023 22.312 316.327 21.2489C315.676 20.2267 315.349 18.949 315.348 17.4157C315.348 15.7036 315.764 14.2281 316.595 12.9892C317.448 11.7321 318.646 10.7482 320.045 10.156C321.514 9.5038 323.181 9.1777 325.046 9.1777C328.353 9.14536 331.567 10.2709 334.131 12.3593C334.412 12.5637 334.553 12.7937 334.553 13.0492C334.535 13.3011 334.442 13.5417 334.284 13.7392L332.674 16.2691C332.469 16.6024 332.252 16.7691 332.023 16.7691C331.767 16.7377 331.527 16.6309 331.333 16.4624C330.369 15.7669 329.327 15.1879 328.227 14.7375C327.203 14.3284 326.11 14.1202 325.007 14.1242C323.756 14.1242 322.766 14.3925 322.037 14.9292C321.691 15.1682 321.41 15.4896 321.219 15.8643C321.028 16.239 320.934 16.6553 320.944 17.0757C320.92 17.6482 321.112 18.2088 321.48 18.6474C321.923 19.1119 322.468 19.4663 323.072 19.6823C324.052 20.0508 325.054 20.3581 326.072 20.6023C328.041 21.0878 329.653 21.6695 330.906 22.3472C332.159 23.025 333.099 23.8683 333.724 24.8771C334.35 25.886 334.663 27.1187 334.663 28.5753C334.663 30.2864 334.228 31.7685 333.359 33.0218C332.49 34.2751 331.276 35.2401 329.718 35.9167C328.162 36.5934 326.373 36.9317 324.351 36.9317C322.59 36.9441 320.841 36.6457 319.184 36.0501C317.636 35.4974 316.196 34.6803 314.928 33.6351C314.57 33.3552 314.392 33.0985 314.392 32.8685C314.392 32.7152 314.493 32.4735 314.698 32.1402L316.308 29.6486C316.396 29.5182 316.503 29.4024 316.627 29.3053Z" fill="#250C77"/>
</svg>
