<svg width="18" height="18" viewBox="0 0 18 18" fill="none" xmlns="http://www.w3.org/2000/svg">
<path d="M15.1875 7.87544V14.6254C15.1875 14.9238 15.069 15.21 14.858 15.4209C14.647 15.6319 14.3609 15.7504 14.0625 15.7504H3.9375C3.63913 15.7504 3.35298 15.6319 3.142 15.4209C2.93103 15.21 2.8125 14.9238 2.8125 14.6254V7.87544C2.8125 7.57707 2.93103 7.29093 3.142 7.07995C3.35298 6.86897 3.63913 6.75044 3.9375 6.75044H5.625C5.77418 6.75044 5.91726 6.80971 6.02275 6.9152C6.12824 7.02068 6.1875 7.16376 6.1875 7.31294C6.1875 7.46213 6.12824 7.6052 6.02275 7.71069C5.91726 7.81618 5.77418 7.87544 5.625 7.87544H3.9375V14.6254H14.0625V7.87544H12.375C12.2258 7.87544 12.0827 7.81618 11.9773 7.71069C11.8718 7.6052 11.8125 7.46213 11.8125 7.31294C11.8125 7.16376 11.8718 7.02068 11.9773 6.9152C12.0827 6.80971 12.2258 6.75044 12.375 6.75044H14.0625C14.3609 6.75044 14.647 6.86897 14.858 7.07995C15.069 7.29093 15.1875 7.57707 15.1875 7.87544ZM6.58547 4.89841L8.4375 3.04568V9.56294C8.4375 9.71213 8.49676 9.8552 8.60225 9.96069C8.70774 10.0662 8.85082 10.1254 9 10.1254C9.14918 10.1254 9.29226 10.0662 9.39775 9.96069C9.50324 9.8552 9.5625 9.71213 9.5625 9.56294V3.04568L11.4145 4.89841C11.5201 5.00396 11.6632 5.06326 11.8125 5.06326C11.9618 5.06326 12.1049 5.00396 12.2105 4.89841C12.316 4.79286 12.3753 4.64971 12.3753 4.50044C12.3753 4.35118 12.316 4.20802 12.2105 4.10247L9.39797 1.28997C9.34573 1.23767 9.28369 1.19619 9.2154 1.16788C9.14712 1.13957 9.07392 1.125 9 1.125C8.92608 1.125 8.85288 1.13957 8.7846 1.16788C8.71631 1.19619 8.65427 1.23767 8.60203 1.28997L5.78953 4.10247C5.68398 4.20802 5.62469 4.35118 5.62469 4.50044C5.62469 4.64971 5.68398 4.79286 5.78953 4.89841C5.89508 5.00396 6.03823 5.06326 6.1875 5.06326C6.33677 5.06326 6.47992 5.00396 6.58547 4.89841Z" fill="#DEDFEE"/>
</svg>
